<?xml version="1.0" encoding="utf-8"?>

<!DOCTYPE svg PUBLIC "-//W3C//DTD SVG 1.1//EN" "http://www.w3.org/Graphics/SVG/1.1/DTD/svg11.dtd">
<svg version="1.1" id="Layer_1" xmlns="http://www.w3.org/2000/svg" xmlns:xlink="http://www.w3.org/1999/xlink" x="0px" y="0px"
	 viewBox="0 0 2720.873 1324.221" enable-background="new 0 0 2720.873 1324.221" xml:space="preserve">
<g>
	<g>
		<path fill="#FF0000" d="M349.155,667.566c20.814,0.696,28.969,23.485,17.207,37.171c-3.647,4.244-8.468,6.783-13.452,7.583
			c-26.018,4.177-47.197-42.687-72.063-41.355c21.345-1.067,37.164-37.91,57.342-46.536c13.544-5.79,28.127,2.602,30.859,16.079
			c2.582,12.735-5.872,24.71-18.374,26.792C350.17,667.383,349.657,667.41,349.155,667.566z"/>
		<path fill="#FF0048" d="M293.037,760.071c0,0,31.353-54.943,54.407-60.325c12.471-2.912,24.941,4.838,27.853,17.309
			c2.912,12.471-4.838,24.941-17.309,27.853c12.471-2.912,24.941,4.838,27.853,17.309c2.912,12.471-4.838,24.941-17.309,27.853
			C346.057,795.315,293.037,760.071,293.037,760.071z"/>
		<path id="path3_2_" fill="#9EEB00" d="M394.972,788.518c-3.625-7.423-11.046-13-20.475-14.377
			c-10.296-1.505-19.718,2.907-25.754,12.334c-4.651,7.264-7.959,16.636-10.574,27.053c-3.357,13.373-7.746,25.104-14.875,33.255
			c10.818-0.48,22.722,3.414,35.265,9.139c9.77,4.46,19.157,7.727,27.735,8.628c11.133,1.169,20.461-3.438,25.713-12.421
			c9.471-16.199,1.363-36.48-18.821-38.963C398.433,804.643,398.486,795.713,394.972,788.518z"/>
		<path fill="#5F001A" enable-background="new    " d="M461.263,917.805c6.363-9.191,5.82-20.291-1.075-30.235
			c-0.599-0.864-1.224-1.669-1.873-2.418c-6.848-7.904-16.335-9.53-25.43-7.28c3.674-9.063,2.978-18.497-4.265-26.857
			c-0.479-0.553-0.988-1.102-1.525-1.646c-7.751-7.84-18.912-10.676-30.554-4.53c-20.943,11.056-22.166,45.658-20.669,82.422
			C413.126,935.467,448.22,936.646,461.263,917.805z"/>
		<path fill="#365900" d="M488.466,935.14c12.6-16.582,35.909-10.063,40.278,7.445c1.355,5.429,0.64,10.831-1.588,15.361
			c-11.631,23.646-62.115,13.838-75.402,34.898c11.468-18.034-9.453-52.24-4.827-73.691c3.104-14.399,18.382-21.448,30.959-15.887
			c11.884,5.254,16.769,19.075,11.241,30.48C488.904,934.207,488.629,934.641,488.466,935.14z"/>
		<path fill="#FF0030" d="M539.982,1033.274c0,0-31.885-54.636-25.011-77.29c3.719-12.255,16.667-19.174,28.922-15.456
			s19.174,16.667,15.456,28.922c3.719-12.255,16.667-19.174,28.922-15.456c12.255,3.719,19.174,16.667,15.456,28.922
			C597.025,1005.001,539.982,1033.274,539.982,1033.274z"/>
		<path id="path3_3_" fill="#FFDAAE" d="M614.943,958.406c-8.249-0.442-16.731,3.332-22.519,10.901
			c-6.321,8.266-7.047,18.644-1.745,28.502c4.086,7.596,10.667,15.044,18.498,22.394c10.054,9.436,18.17,18.975,21.827,29.168
			c4.84-9.687,14.031-18.196,25.133-26.372c8.648-6.369,16.067-12.982,21.025-20.04c6.434-9.16,6.945-19.551,1.649-28.508
			c-9.55-16.153-31.214-18.929-43.198-2.499C630.716,963.222,622.938,958.834,614.943,958.406z"/>
		<path fill="#FF0000" enable-background="new    " d="M760.973,965.845c-4.732-10.128-14.592-15.253-26.656-14.31
			c-1.049,0.082-2.058,0.216-3.033,0.399c-10.278,1.931-16.464,9.306-19.104,18.295c-5.976-7.741-14.475-11.894-25.346-9.851
			c-0.719,0.135-1.45,0.298-2.19,0.488c-10.678,2.744-18.752,10.954-19.311,24.107c-1.005,23.661,28.264,42.156,60.773,59.391
			C751.968,1016.323,770.672,986.606,760.973,965.845z"/>
		<path fill="#5F7443" d="M793.986,955.92c-5.611-20.055,13.659-34.701,30.254-27.613c5.146,2.198,9.021,6.029,11.286,10.54
			c11.827,23.548-26.471,57.871-17.705,81.178c-7.452-20.03-47.351-24.005-61.659-40.644c-9.604-11.168-5.999-27.603,6.027-34.271
			c11.364-6.301,25.331-1.851,31.085,9.442C793.506,955.007,793.686,955.489,793.986,955.92z"/>
		<path fill="#FF0500" d="M900.979,981.281c0,0-61.479-14.904-73.037-35.565c-6.253-11.176-2.261-25.305,8.915-31.558
			c11.176-6.253,25.305-2.261,31.558,8.915c-6.253-11.176-2.261-25.305,8.915-31.558c11.176-6.253,25.305-2.261,31.558,8.915
			C920.155,920.572,900.979,981.281,900.979,981.281z"/>
		<path id="path3_4_" fill="#A90000" d="M904.667,873.818c-6.701,4.831-10.939,13.09-10.698,22.616
			c0.263,10.402,6.208,18.94,16.521,23.291c7.947,3.353,17.745,5.023,28.454,5.834c13.749,1.041,26.054,3.378,35.296,9.022
			c-2.307-10.58-0.488-22.972,3.028-36.304c2.739-10.385,4.367-20.189,3.801-28.796c-0.735-11.17-6.857-19.582-16.6-23.235
			c-17.57-6.588-36.183,4.841-35.208,25.154C919.971,867.674,911.162,869.136,904.667,873.818z"/>
		<path fill="#6502BC" enable-background="new    " d="M1035.198,794.934c-9.112-6.477-20.217-6.072-30.246,0.699
			c-0.872,0.589-1.684,1.203-2.442,1.843c-7.989,6.749-9.732,16.216-7.595,25.337c-9.017-3.787-18.458-3.207-26.908,3.931
			c-0.559,0.472-1.115,0.974-1.665,1.505c-7.936,7.653-10.91,18.778-4.909,30.495c10.795,21.078,45.379,22.732,82.159,21.692
			C1052.261,843.287,1053.875,808.211,1035.198,794.934z"/>
		<path fill="#FF7C00" d="M1063.371,770.811c-13.005-16.265-0.995-37.279,17.05-37.244c5.595,0.011,10.66,2.023,14.509,5.289
			c20.092,17.05-1.739,63.614,15.442,81.638c-14.69-15.522-52.967-3.582-72.641-13.302c-13.206-6.524-16.313-23.061-7.852-33.9
			c7.996-10.242,22.591-11.607,32.302-3.463C1062.573,770.158,1062.927,770.531,1063.371,770.811z"/>
		<path fill="#FF0016" d="M1171.959,760.11c0,0-63.204,2.653-80.018-14.012c-9.096-9.015-9.161-23.697-0.146-32.792
			c9.015-9.096,23.697-9.161,32.792-0.146c-9.096-9.015-9.161-23.697-0.146-32.792c9.015-9.096,23.697-9.161,32.792-0.146
			C1173.625,696.466,1171.959,760.11,1171.959,760.11z"/>
		<path id="path3_5_" fill="#F00000" d="M1150.066,685.436c-1.007,8.2,2.175,16.92,9.329,23.215
			c7.812,6.874,18.116,8.311,28.315,3.698c7.859-3.554,15.741-9.609,23.611-16.917c10.104-9.382,20.178-16.824,30.598-19.772
			c-9.331-5.494-17.189-15.248-24.584-26.885c-5.76-9.065-11.849-16.92-18.549-22.351c-8.696-7.048-19.027-8.271-28.327-3.603
			c-16.77,8.418-21.028,29.841-5.459,42.924C1155.954,670.031,1151.042,677.489,1150.066,685.436z"/>
		<path fill="#BC9400" enable-background="new    " d="M1091.123,588.87c-5.599,9.676-4.159,20.695,3.517,30.049
			c0.667,0.813,1.355,1.565,2.063,2.259c7.464,7.324,17.053,8.177,25.935,5.199c-2.929,9.331-1.472,18.677,6.424,26.424
			c0.522,0.513,1.074,1.019,1.653,1.517c8.36,7.188,19.713,9.111,30.82,2.043c19.98-12.714,18.4-47.301,13.934-83.824
			C1137.674,567.372,1102.6,569.036,1091.123,588.87z"/>
		<path fill="#F90080" d="M1065.412,560.418c-15.679,13.706-37.2,2.63-37.956-15.4c-0.234-5.59,1.553-10.738,4.647-14.727
			c16.152-20.821,63.629-1.054,80.882-19.008c-14.863,15.357-1.255,53.073-10.103,73.155c-5.939,13.479-22.323,17.309-33.523,9.331
			c-10.583-7.539-12.587-22.06-4.877-32.119C1064.795,561.245,1065.152,560.875,1065.412,560.418z"/>
		<path fill="#FF2A00" d="M1049.743,452.178c0,0,5.973,62.977-9.785,80.644c-8.524,9.557-23.182,10.395-32.739,1.871
			c-9.557-8.524-10.395-23.182-1.871-32.739c-8.524,9.557-23.182,10.395-32.739,1.871c-9.557-8.524-10.395-23.182-1.871-32.739
			C986.1,453.861,1049.743,452.178,1049.743,452.178z"/>
		<path id="path3_6_" fill="#FF0000" d="M946.447,481.914c6.576,5,15.712,6.644,24.753,3.635
			c9.873-3.286,16.305-11.463,17.458-22.597c0.888-8.58-0.372-18.438-2.72-28.918c-3.015-13.455-4.369-25.906-1.667-36.392
			c-9.447,5.293-21.831,7.168-35.609,7.694c-10.732,0.41-20.585,1.712-28.652,4.765c-10.469,3.962-16.73,12.271-17.382,22.656
			c-1.176,18.728,15.186,33.197,34.331,26.339C936.105,469.068,940.073,477.068,946.447,481.914z"/>
		<path fill="#FF5600" enable-background="new    " d="M832.05,385.281c-2.665,10.857,1.803,21.032,11.792,27.862
			c0.868,0.594,1.739,1.122,2.613,1.591c9.217,4.941,18.66,3.074,26.353-2.273c-0.199,9.777,3.818,18.342,13.567,23.567
			c0.645,0.346,1.316,0.677,2.012,0.993c10.039,4.559,21.476,3.226,30.159-6.67c15.62-17.801,4.417-50.562-10.099-84.372
			C870.717,351.607,837.512,363.027,832.05,385.281z"/>
		<path fill="#C3FFE4" d="M800.542,368.92c-9.049,18.757-33.19,17.005-40.955,0.716c-2.408-5.051-2.782-10.488-1.499-15.369
			c6.695-25.487,58.12-25.918,66.952-49.2c-7.651,19.955,19.656,49.315,19.39,71.258c-0.178,14.729-13.748,24.676-27.179,21.728
			c-12.692-2.785-20.229-15.358-17.08-27.635C800.299,369.922,800.482,369.442,800.542,368.92z"/>
		<path fill="#FF5E00" d="M734.294,280.415c0,0,39.02,49.792,35.291,73.17c-2.017,12.647-13.905,21.263-26.551,19.246
			s-21.263-13.905-19.246-26.551c-2.017,12.647-13.905,21.263-26.551,19.246s-21.263-13.905-19.246-26.551
			C681.627,316.184,734.294,280.415,734.294,280.415z"/>
		<path id="path3_7_" fill="#FF00E8" d="M669.805,364.259c8.24-0.589,16.186-5.389,20.987-13.62
			c5.243-8.988,4.671-19.376-1.817-28.498c-5-7.029-12.458-13.598-21.143-19.916c-11.15-8.111-20.391-16.565-25.289-26.223
			c-3.597,10.214-11.657,19.801-21.654,29.296c-7.787,7.396-14.325,14.882-18.366,22.502c-5.244,9.889-4.457,20.263,1.913,28.491
			c11.487,14.838,33.328,14.895,43.173-2.899C653.555,361.445,661.819,364.83,669.805,364.259z"/>
		<path fill="#FF0000" enable-background="new    " d="M524.258,376.197c5.984,9.443,16.417,13.269,28.262,10.797
			c1.03-0.215,2.014-0.476,2.957-0.782c9.948-3.224,15.144-11.328,16.617-20.58c6.914,6.917,15.872,9.953,26.395,6.542
			c0.696-0.226,1.4-0.48,2.11-0.763c10.242-4.082,17.204-13.254,16.082-26.371c-2.017-23.596-33.405-38.212-67.844-51.164
			C526.758,324.983,511.992,356.841,524.258,376.197z"/>
		<path fill="#270000" d="M496.437,393.694c9.783,18.385-5.896,36.824-23.625,33.461c-5.497-1.043-10.104-3.954-13.285-7.873
			c-16.604-20.463,13.439-62.202-0.124-83.086c11.576,17.965,51.398,13.287,68.943,26.469c11.776,8.848,11.781,25.673,1.466,34.766
			c-9.747,8.592-24.344,7.242-32.387-2.553C497.102,394.483,496.823,394.05,496.437,393.694z"/>
		<path fill="#FFBB00" d="M385.843,397.71c0,0,63.087-4.669,80.425,11.45c9.379,8.72,9.913,23.392,1.193,32.771
			s-23.392,9.913-32.771,1.193c9.379,8.72,9.913,23.392,1.193,32.771s-23.392,9.913-32.771,1.193
			C386.21,461.374,385.843,397.71,385.843,397.71z"/>
		<path id="path3_8_" fill="#E3000B" d="M420.132,497.76c4.005-7.225,4.321-16.503,0.046-25.019
			c-4.669-9.3-13.684-14.491-24.868-14.035c-8.618,0.352-18.194,3.014-28.229,6.841c-12.883,4.914-25.011,8.041-35.776,6.872
			c6.594,8.589,10.226,20.576,12.724,34.136c1.945,10.562,4.648,20.126,8.827,27.672c5.423,9.792,14.544,14.796,24.916,13.951
			c18.703-1.524,30.674-19.792,21.14-37.755C408.903,509.838,416.25,504.763,420.132,497.76z"/>
		<path fill="#FF0000" enable-background="new    " d="M350.442,626.295c11.178,0.177,20.1-6.447,24.531-17.707
			c0.385-0.979,0.707-1.945,0.968-2.902c2.762-10.087-1.164-18.876-8.091-25.183c9.576-1.986,17.029-7.811,19.949-18.48
			c0.193-0.706,0.367-1.434,0.52-2.183c2.206-10.802-1.644-21.655-13.226-27.913c-20.835-11.258-50.274,6.967-79.997,28.656
			C308.993,596.109,327.529,625.932,350.442,626.295z"/>
		<path fill="#800000" d="M349.275,659.317c20.709,2.2,27.194,25.519,14.473,38.319c-3.944,3.969-8.937,6.153-13.965,6.59
			c-26.252,2.284-43.986-45.989-68.883-46.46c21.366,0.48,39.809-35.123,60.558-42.266c13.927-4.795,27.865,4.63,29.616,18.269
			c1.654,12.888-7.644,24.22-20.264,25.393C350.301,659.209,349.787,659.198,349.275,659.317z"/>
	</g>
	<g>
		<path fill="#E38A5B" d="M57.128,677.716c-20.787-1.272-28.308-24.277-16.173-37.633c3.763-4.141,8.653-6.546,13.657-7.208
			c26.124-3.456,45.999,43.976,70.891,43.333c-21.366,0.476-38.198,36.868-58.607,44.932c-13.699,5.413-28.044-3.379-30.403-16.926
			c-2.229-12.801,6.553-24.538,19.108-26.273C56.108,677.87,56.623,677.858,57.128,677.716z"/>
		<path fill="#FF4300" d="M129.023,600.572c0,0-48.208,40.96-71.715,38.16c-12.716-1.515-21.797-13.052-20.282-25.768
			c1.515-12.716,13.052-21.797,25.768-20.282c-12.716-1.515-21.797-13.052-20.282-25.768c1.515-12.716,13.052-21.797,25.768-20.282
			C91.197,549.362,129.023,600.572,129.023,600.572z"/>
		<path id="path3_9_" fill="#81005B" d="M50.866,523.777c-2.113,7.986-0.146,17.058,6.085,24.268
			c6.805,7.872,16.817,10.697,27.549,7.515c8.269-2.453,16.901-7.379,25.692-13.549c11.286-7.921,22.279-13.923,33.003-15.427
			c-8.497-6.712-14.956-17.444-20.699-29.979c-4.474-9.764-9.437-18.374-15.337-24.666c-7.657-8.165-17.726-10.782-27.574-7.422
			c-17.759,6.059-24.891,26.704-11.246,41.783C58.794,509.316,52.914,516.036,50.866,523.777z"/>
		<path fill="#FFBC00" enable-background="new    " d="M123.597,380.203c-11.034-1.794-20.822,3.469-26.836,13.969
			c-0.523,0.913-0.981,1.822-1.378,2.731c-4.193,9.581-1.581,18.846,4.36,26.089c-9.762,0.579-17.98,5.263-22.414,15.397
			c-0.293,0.671-0.571,1.366-0.83,2.085c-3.746,10.369-1.509,21.664,9.046,29.534c18.986,14.155,50.753,0.385,83.302-16.773
			C160.238,416.072,146.215,383.88,123.597,380.203z"/>
		<path fill="#FF00A6" d="M148.802,345.59c-16.59-12.589-10.087-35.903,7.419-40.283c5.428-1.358,10.831-0.647,15.362,1.578
			c23.654,11.615,13.879,62.106,34.948,75.379c-18.042-11.456-52.234,9.487-73.688,4.876c-14.401-3.095-21.46-18.368-15.907-30.948
			c5.247-11.888,19.064-16.782,30.473-11.261C147.868,345.152,148.302,345.428,148.802,345.59z"/>
		<path fill="#226B72" d="M253.129,319.449c0,0-62.875,6.962-80.788-8.515c-9.69-8.373-10.758-23.016-2.385-32.706
			c8.373-9.69,23.016-10.758,32.706-2.385c-9.69-8.373-10.758-23.016-2.385-32.706c8.373-9.69,23.016-10.758,32.706-2.385
			C250.445,255.841,253.129,319.449,253.129,319.449z"/>
		<path id="path3_10_" fill="#AE00B9" d="M231.113,212.196c-6.196,5.464-9.605,14.098-8.433,23.555
			c1.28,10.327,8.032,18.241,18.722,21.561c8.237,2.559,18.151,3.262,28.888,3.021c13.785-0.31,26.259,0.812,36.009,5.523
			c-3.332-10.303-2.734-22.814-0.54-36.426c1.709-10.603,2.37-20.52,0.964-29.03c-1.825-11.044-8.741-18.816-18.795-21.498
			c-18.131-4.836-35.535,8.36-32.576,28.48C245.742,204.582,237.118,206.9,231.113,212.196z"/>
		<path fill="#5F0000" enable-background="new    " d="M370.863,132.909c-8.226-7.57-19.294-8.563-30.095-3.105
			c-0.939,0.474-1.822,0.982-2.654,1.522c-8.773,5.692-11.691,14.865-10.717,24.183c-8.47-4.889-17.909-5.5-27.188,0.52
			c-0.614,0.398-1.228,0.826-1.84,1.284c-8.834,6.596-13.182,17.259-8.7,29.637c8.062,22.267,42.164,28.252,78.784,31.839
			C381.718,183.022,387.725,148.426,370.863,132.909z"/>
		<path fill="#99B900" d="M410.752,117.689c-7.032-19.603,11.141-35.589,28.201-29.707c5.29,1.824,9.429,5.368,12.011,9.705
			c13.482,22.642-22.263,59.616-11.851,82.236c-8.866-19.446-48.947-20.556-64.409-36.128c-10.378-10.452-7.958-27.103,3.56-34.615
			c10.884-7.098,25.133-3.658,31.681,7.193C410.209,116.813,410.422,117.281,410.752,117.689z"/>
		<path fill="#1F00EB" d="M512.464,152.59c0,0-56.551-28.35-63.167-51.081c-3.579-12.296,3.488-25.165,15.784-28.744
			c12.296-3.579,25.165,3.488,28.744,15.784c-3.579-12.296,3.488-25.165,15.784-28.744c12.296-3.579,25.165,3.488,28.744,15.784
			C544.804,97.75,512.464,152.59,512.464,152.59z"/>
		<path id="path3_11_" fill="#D44B00" d="M552.524,50.572c-8.173,1.206-15.735,6.589-19.905,15.157
			c-4.553,9.357-3.203,19.672,3.952,28.281c5.513,6.633,13.444,12.624,22.579,18.272c11.728,7.251,21.578,14.987,27.187,24.25
			c2.819-10.455,10.137-20.62,19.393-30.84c7.21-7.96,13.167-15.916,16.624-23.818c4.486-10.255,2.922-20.541-4.048-28.267
			c-12.569-13.933-34.353-12.35-42.833,6.133C568.939,52.158,560.445,49.403,552.524,50.572z"/>
		<path fill="#FF0000" enable-background="new    " d="M712.958,60.442c-2.747-10.836-11.471-17.72-23.497-19.058
			c-1.045-0.116-2.062-0.174-3.054-0.177c-10.458-0.032-17.918,6.051-22.198,14.385c-4.417-8.725-11.986-14.399-23.047-14.433
			c-0.732-0.002-1.48,0.02-2.243,0.068c-11.004,0.691-20.474,7.24-23.492,20.055c-5.428,23.052,19.85,46.711,48.547,69.741
			C694.64,108.333,718.589,82.654,712.958,60.442z"/>
		<path fill="#FF0D00" d="M754.648,69.578c4.854-20.252,28.815-23.674,39.866-9.408c3.427,4.423,4.948,9.656,4.733,14.699
			c-1.122,26.328-51.28,37.684-54.96,62.312c3.233-21.126-29.692-44.008-34.099-65.506c-2.958-14.43,8.187-27.035,21.938-27.011
			c12.994,0.023,23.032,10.706,22.565,23.371C754.673,68.546,754.595,69.055,754.648,69.578z"/>
		<path fill="#FF0993" d="M820.763,154.398c0,0-32.009-54.564-25.186-77.233c3.691-12.263,16.624-19.212,28.887-15.521
			c12.263,3.691,19.212,16.624,15.521,28.887c3.691-12.263,16.624-19.212,28.887-15.521s19.212,16.624,15.521,28.887
			C877.742,125.996,820.763,154.398,820.763,154.398z"/>
		<path id="path3_12_" fill="#FF0000" d="M911.839,90.203c-7.376-3.72-16.659-3.673-25.001,0.932
			c-9.11,5.028-13.946,14.24-13.052,25.398c0.688,8.598,3.722,18.062,7.939,27.94c5.414,12.681,9.012,24.678,8.265,35.48
			c8.325-6.925,20.161-11.023,33.613-14.048c10.478-2.357,19.929-5.431,27.306-9.902c9.573-5.802,14.216-15.111,12.967-25.442
			c-2.253-18.629-20.976-29.877-38.552-19.648C924.347,100.952,918.988,93.809,911.839,90.203z"/>
		<path fill="#FF008D" enable-background="new    " d="M1040.237,182.041c3.179-10.717-0.798-21.094-10.451-28.392
			c-0.839-0.634-1.683-1.204-2.534-1.714c-8.971-5.375-18.493-3.96-26.432,1.014c0.665-9.757-2.939-18.503-12.428-24.187
			c-0.628-0.376-1.282-0.739-1.962-1.088c-9.81-5.032-21.298-4.245-30.443,5.225c-16.45,17.036-6.822,50.294,6.067,84.757
			C1000.009,213.835,1033.72,204.01,1040.237,182.041z"/>
		<path fill="#FF3388" d="M1071.604,208.192c13.57-15.797,36.447-7.895,39.76,9.844c1.027,5.5-0.01,10.85-2.505,15.238
			c-13.026,22.907-62.832,10.094-77.356,30.321c12.527-17.315-6.307-52.712-0.406-73.848c3.961-14.187,19.634-20.308,31.854-14.005
			c11.548,5.957,15.597,20.045,9.396,31.099C1072.097,207.287,1071.796,207.704,1071.604,208.192z"/>
		<path fill="#F23C6F" d="M1096.089,313.78c0,0-8.254-62.719,6.853-80.946c8.172-9.86,22.79-11.229,32.65-3.057
			c9.86,8.172,11.229,22.79,3.057,32.65c8.172-9.86,22.79-11.229,32.65-3.057c9.86,8.172,11.229,22.79,3.057,32.65
			C1159.629,309.789,1096.089,313.78,1096.089,313.78z"/>
		<path id="path3_13_" fill="#B4009B" d="M1201.041,285.395c-6.133-5.535-15.098-7.941-24.36-5.702
			c-10.114,2.445-17.21,10.052-19.295,21.05c-1.606,8.475-1.179,18.404,0.281,29.045c1.874,13.66,2.177,26.182-1.396,36.404
			c9.858-4.481,22.356-5.308,36.129-4.675c10.729,0.494,20.656,0.024,28.951-2.341c10.765-3.068,17.702-10.822,19.224-21.115
			c2.745-18.563-12.343-34.355-31.996-29.13C1210.267,299.065,1206.984,290.76,1201.041,285.395z"/>
		<path fill="#FF00A6" enable-background="new    " d="M1300.893,406.273c5.545-9.707,4.045-20.718-3.683-30.029
			c-0.672-0.809-1.363-1.557-2.075-2.248c-7.505-7.283-17.098-8.083-25.964-5.056c2.878-9.347,1.369-18.685-6.569-26.388
			c-0.525-0.51-1.079-1.013-1.661-1.508c-8.4-7.141-19.763-9.002-30.831-1.873c-19.909,12.824-18.14,47.402-13.472,83.9
			C1254.462,428.028,1289.526,426.17,1300.893,406.273z"/>
		<path fill="#FF0000" d="M1323.956,433.414c13.801-15.596,36.559-7.358,39.611,10.428c0.946,5.515-0.169,10.849-2.729,15.199
			c-13.362,22.713-62.974,9.169-77.794,29.179c12.781-17.129-5.531-52.799,0.68-73.846c4.169-14.127,19.93-20.017,32.057-13.535
			c11.459,6.126,15.3,20.272,8.937,31.234C1324.463,432.516,1324.155,432.929,1323.956,433.414z"/>
		<path fill="#6F8D00" d="M1424.697,501.559c0,0-63.203,2.669-80.022-13.991c-9.098-9.013-9.168-23.694-0.155-32.792
			c9.013-9.098,23.694-9.168,32.792-0.155c-9.098-9.013-9.168-23.694-0.155-32.792c9.013-9.098,23.694-9.168,32.792-0.155
			C1426.346,437.915,1424.697,501.559,1424.697,501.559z"/>
		<path id="path3_14_" fill="#FF5C00" d="M1404.005,394.925c-5.869,5.814-8.772,14.631-7.054,24.004
			c1.876,10.235,9.075,17.745,19.94,20.441c8.372,2.077,18.31,2.205,29.015,1.342c13.744-1.108,26.262-0.711,36.269,3.428
			c-3.923-10.093-4.051-22.617-2.649-36.334c1.092-10.684,1.177-20.623-0.72-29.037c-2.462-10.92-9.816-18.278-20.008-20.373
			c-18.38-3.778-34.991,10.404-30.872,30.319C1418.169,386.477,1409.694,389.29,1404.005,394.925z"/>
		<path fill="#FF0500" enable-background="new    " d="M1530.013,301.842c-9.385-6.073-20.463-5.184-30.187,2.018
			c-0.845,0.626-1.63,1.275-2.359,1.948c-7.687,7.091-9.015,16.625-6.483,25.645c-9.173-3.39-18.58-2.399-26.711,5.101
			c-0.538,0.496-1.071,1.022-1.597,1.576c-7.595,7.992-10.081,19.236-3.574,30.68c11.704,20.587,46.327,20.731,83.027,18.087
			C1549.169,349.404,1549.252,314.291,1530.013,301.842z"/>
		<path fill="#03AC00" d="M1561.994,278.229c-11.99-17.027,1.277-37.271,19.287-36.136c5.584,0.352,10.517,2.668,14.16,6.162
			c19.017,18.242-5.61,63.39,10.441,82.427c-13.717-16.388-52.651-6.801-71.696-17.702c-12.784-7.317-14.878-24.011-5.772-34.315
			c8.605-9.736,23.256-10.209,32.453-1.489C1561.236,277.529,1561.567,277.923,1561.994,278.229z"/>
		<path fill="#FF0600" d="M1670.297,279.917c0,0-62.853-7.159-76.886-26.225c-7.591-10.314-5.384-24.829,4.929-32.42
			c10.314-7.591,24.829-5.384,32.42,4.93c-7.591-10.314-5.384-24.829,4.93-32.42s24.829-5.384,32.42,4.93
			C1681.791,217.298,1670.297,279.917,1670.297,279.917z"/>
		<path id="path3_15_" fill="#4E4BB2" d="M1669.406,170.788c-6.986,4.409-11.725,12.391-12.072,21.914
			c-0.379,10.399,5.029,19.286,15.054,24.265c7.725,3.836,17.401,6.107,28.04,7.577c13.658,1.887,25.796,4.978,34.672,11.18
			c-1.651-10.702,0.929-22.958,5.261-36.049c3.374-10.196,5.604-19.882,5.569-28.507c-0.045-11.194-5.636-19.967-15.136-24.214
			c-17.131-7.658-36.412,2.602-36.692,22.936C1685.06,165.599,1676.177,166.515,1669.406,170.788z"/>
		<path fill="#FFE000" enable-background="new    " d="M1816.865,111.328c-7.327-8.443-18.215-10.668-29.558-6.453
			c-0.986,0.366-1.92,0.772-2.807,1.215c-9.355,4.675-13.281,13.464-13.356,22.832c-7.87-5.806-17.181-7.469-27.076-2.525
			c-0.655,0.327-1.313,0.684-1.973,1.07c-9.517,5.566-15.03,15.675-11.962,28.478c5.52,23.03,38.739,32.792,74.727,40.454
			C1822.045,162.341,1831.885,128.635,1816.865,111.328z"/>
		<path fill="#2B2800" d="M1856.874,99.622c-5.41-20.111,14.006-34.562,30.529-27.309c5.123,2.249,8.96,6.119,11.18,10.653
			c11.591,23.666-27.05,57.602-18.518,80.996c-7.251-20.104-47.108-24.479-61.248-41.26c-9.491-11.264-5.722-27.662,6.37-34.209
			c11.427-6.187,25.348-1.597,30.989,9.753C1856.403,98.704,1856.578,99.188,1856.874,99.622z"/>
		<path fill="#FF00AD" d="M1955.867,141.924c0,0-54.503-32.112-59.565-55.238c-2.738-12.51,5.183-24.872,17.693-27.61
			c12.51-2.738,24.872,5.183,27.61,17.693c-2.738-12.51,5.183-24.872,17.693-27.61c12.51-2.738,24.872,5.183,27.61,17.693
			C1991.844,89.398,1955.867,141.924,1955.867,141.924z"/>
		<path id="path3_16_" fill="#21B48B" d="M2002.513,42.759c-8.233,0.686-16.121,5.58-20.824,13.867
			c-5.136,9.05-4.441,19.43,2.155,28.474c5.083,6.969,12.618,13.45,21.377,19.665c11.245,7.978,20.586,16.323,25.597,25.922
			c3.475-10.256,11.422-19.938,21.306-29.55c7.699-7.488,14.148-15.05,18.098-22.718c5.126-9.951,4.216-20.314-2.25-28.467
			c-11.662-14.701-33.502-14.499-43.136,3.41C2018.796,45.381,2010.493,42.093,2002.513,42.759z"/>
		<path fill="#FF0000" enable-background="new    " d="M2161.912,62.534c-2.086-10.983-10.377-18.382-22.301-20.445
			c-1.037-0.179-2.048-0.299-3.038-0.362c-10.437-0.665-18.251,4.956-23.028,13.015c-3.881-8.976-11.092-15.098-22.131-15.802
			c-0.73-0.047-1.479-0.069-2.243-0.068c-11.025,0.024-20.875,5.987-24.663,18.596c-6.813,22.681,16.986,47.827,44.237,72.552
			C2140.728,109.229,2166.188,85.047,2161.912,62.534z"/>
		<path fill="#A74A00" d="M2203.791,74.069c6.733-19.707,30.909-20.865,40.573-5.625c2.996,4.725,4.02,10.078,3.333,15.078
			c-3.588,26.106-54.591,32.705-60.565,56.878c5.202-20.729-25.431-46.601-27.8-68.417c-1.59-14.643,10.688-26.147,24.376-24.832
			c12.934,1.242,21.925,12.82,20.272,25.386C2203.913,73.045,2203.788,73.544,2203.791,74.069z"/>
		<path fill="#060000" d="M2265.232,161.651c0,0-29.805-55.798-22.083-78.177c4.177-12.106,17.377-18.533,29.483-14.356
			s18.533,17.378,14.356,29.483c4.177-12.106,17.377-18.533,29.483-14.356s18.533,17.378,14.356,29.483
			C2323.299,135.546,2265.232,161.651,2265.232,161.651z"/>
		<path id="path3_17_" fill="#000045" d="M2356.915,101.513c-7.356-3.76-16.639-3.764-25.006,0.796
			c-9.137,4.979-14.023,14.164-13.19,25.326c0.641,8.602,3.624,18.082,7.787,27.983c5.345,12.71,8.878,24.726,8.071,35.525
			c8.363-6.879,20.221-10.913,33.689-13.865c10.491-2.299,19.959-5.322,27.359-9.753c9.604-5.749,14.299-15.034,13.105-25.371
			c-2.152-18.641-20.813-29.991-38.444-19.858C2369.364,112.329,2364.045,105.157,2356.915,101.513z"/>
		<path fill="#ECA900" enable-background="new    " d="M2481.166,204.505c4.275-10.33,1.395-21.063-7.447-29.324
			c-0.769-0.718-1.549-1.372-2.342-1.967c-8.365-6.277-17.982-5.858-26.394-1.735c1.674-9.635-1.003-18.708-9.851-25.346
			c-0.585-0.439-1.198-0.868-1.839-1.286c-9.235-6.023-20.742-6.433-30.821,2.037c-18.129,15.237-12.005,49.314-2.763,84.929
			C2437.855,231.951,2472.404,225.679,2481.166,204.505z"/>
		<path fill="#C3004A" d="M2508.668,238.378c16.43-12.797,37.289-0.52,37.023,17.524c-0.083,5.595-2.158,10.633-5.473,14.44
			c-17.305,19.873-63.586-2.55-81.829,14.399c15.708-14.491,4.257-52.917,14.228-72.466c6.692-13.121,23.267-16.018,33.997-7.418
			c10.14,8.126,11.318,22.737,3.05,32.344C2509.331,237.588,2508.953,237.937,2508.668,238.378z"/>
		<path fill="#FF00B2" d="M2505.528,345.658c0,0,10.997-62.296,30.887-75.135c10.76-6.945,25.112-3.853,32.057,6.907
			c6.945,10.76,3.853,25.112-6.907,32.057c10.76-6.945,25.112-3.853,32.057,6.907c6.945,10.76,3.853,25.112-6.907,32.057
			C2567.325,360.968,2505.528,345.658,2505.528,345.658z"/>
		<path id="path3_18_" fill="#FF0000" d="M2616.001,356.658c-3.13-7.645-10.168-13.697-19.486-15.691
			c-10.175-2.178-19.866,1.606-26.509,10.616c-5.118,6.943-9.034,16.078-12.328,26.3c-4.228,13.124-9.379,24.541-17.027,32.206
			c10.826,0.231,22.449,4.899,34.589,11.436c9.456,5.092,18.608,8.969,27.108,10.431c11.032,1.898,20.642-2.086,26.473-10.705
			c10.514-15.542,3.756-36.311-16.221-40.115C2618.396,372.975,2619.035,364.068,2616.001,356.658z"/>
		<path fill="#2C6300" enable-background="new    " d="M2650.542,511.508c9.559-5.797,13.589-16.153,11.35-28.045
			c-0.195-1.034-0.437-2.023-0.724-2.972c-3.029-10.01-11.029-15.363-20.25-17.018c7.051-6.776,10.262-15.674,7.059-26.261
			c-0.212-0.701-0.452-1.409-0.721-2.125c-3.88-10.32-12.913-17.461-26.05-16.597c-23.631,1.554-38.86,32.647-52.487,66.826
			C2599.387,508.002,2630.948,523.391,2650.542,511.508z"/>
		<path fill="#FF0000" d="M2654.903,553.47c20.757-1.691,31.467,20.014,21.35,34.957c-3.137,4.633-7.636,7.708-12.496,9.073
			c-25.369,7.129-51.774-37.003-76.323-32.834c21.083-3.503,32.58-41.916,51.638-52.795c12.792-7.302,28.24-0.635,32.497,12.44
			c4.023,12.355-3.005,25.22-15.186,28.719C2655.891,553.172,2655.383,553.257,2654.903,553.47z"/>
		<path fill="#036A00" d="M2595.209,642.938c0,0,41.658-47.606,65.322-48.294c12.801-0.372,23.48,9.704,23.852,22.505
			c0.372,12.801-9.703,23.48-22.504,23.852c12.801-0.372,23.48,9.704,23.852,22.505c0.372,12.801-9.703,23.48-22.504,23.852
			C2640.156,688.027,2595.209,642.938,2595.209,642.938z"/>
		<path id="path3_19_" fill="#570000" d="M2683.999,707.158c0.866-8.216-2.466-16.88-9.728-23.05
			c-7.929-6.738-18.257-7.997-28.375-3.209c-7.797,3.689-15.573,9.879-23.316,17.322c-9.941,9.555-19.885,17.169-30.252,20.297
			c9.425,5.332,17.449,14.949,25.044,26.457c5.916,8.964,12.139,16.713,18.932,22.028c8.816,6.897,19.167,7.942,28.385,3.114
			c16.623-8.706,20.51-30.199,4.718-43.012C2678.377,722.662,2683.16,715.121,2683.999,707.158z"/>
		<path fill="#B80000" enable-background="new    " d="M2634.393,860.181c11.179,0.054,20.028-6.669,24.334-17.977
			c0.375-0.983,0.685-1.953,0.936-2.912c2.65-10.117-1.373-18.862-8.369-25.092c9.553-2.092,16.941-7.999,19.744-18.699
			c0.186-0.708,0.351-1.438,0.496-2.188c2.086-10.826-1.883-21.635-13.534-27.765c-20.958-11.026-50.194,7.523-79.675,29.539
			C2592.614,830.456,2611.478,860.072,2634.393,860.181z"/>
		<path fill="#8C3C00" d="M2614.882,898.368c18.344,9.858,15.542,33.899-1.07,40.947c-5.151,2.185-10.599,2.322-15.42,0.828
			c-25.171-7.799-23.36-59.195-46.235-69.033c19.603,8.514,50.125-17.488,72.036-16.266c14.707,0.82,24.053,14.811,20.523,28.101
			c-3.336,12.558-16.225,19.54-28.353,15.859C2615.873,898.656,2615.401,898.451,2614.882,898.368z"/>
		<path fill="#FF008A" d="M2515.917,940.239c0,0,61.06-16.538,81.138-3.996c10.861,6.785,14.166,21.09,7.381,31.951
			c-6.785,10.861-21.09,14.166-31.951,7.381c10.861,6.785,14.166,21.09,7.381,31.951s-21.09,14.166-31.951,7.381
			C2528.34,1002.681,2515.917,940.239,2515.917,940.239z"/>
		<path id="path3_20_" fill="#FF0019" d="M2553.971,1043.011c5.299-6.338,7.364-15.388,4.776-24.559
			c-2.826-10.015-10.697-16.817-21.766-18.484c-8.529-1.284-18.436-0.481-29.013,1.381c-13.58,2.39-26.08,3.167-36.43-0.017
			c4.851,9.681,6.151,22.139,6.04,35.926c-0.087,10.74,0.759,20.642,3.435,28.842c3.474,10.641,11.484,17.279,21.828,18.41
			c18.653,2.04,33.863-13.635,27.897-33.077C2540.661,1052.748,2548.835,1049.153,2553.971,1043.011z"/>
		<path fill="#FF007C" enable-background="new    " d="M2427.73,1142.38c9.265,6.256,20.357,5.583,30.221-1.427
			c0.857-0.609,1.655-1.243,2.396-1.901c7.824-6.939,9.339-16.445,6.983-25.513c9.105,3.568,18.53,2.762,26.805-4.578
			c0.548-0.486,1.091-1.001,1.628-1.544c7.75-7.842,10.455-19.035,4.173-30.605c-11.299-20.812-45.913-21.633-82.657-19.707
			C2409.508,1094.452,2408.739,1129.557,2427.73,1142.38z"/>
		<path fill="#9B00A7" d="M2390.564,1163.35c9.867,18.34-5.728,36.85-23.472,33.568c-5.502-1.017-10.122-3.907-13.32-7.813
			c-16.697-20.387,13.155-62.263-0.502-83.085c11.658,17.912,51.458,13.053,69.063,26.154c11.816,8.794,11.898,25.619,1.625,34.759
			c-9.708,8.637-24.31,7.353-32.398-2.405C2391.232,1164.136,2390.951,1163.705,2390.564,1163.35z"/>
		<path fill="#FF9C66" d="M2284.818,1143.956c0,0,60.139,19.623,70.062,41.116c5.368,11.627,0.294,25.404-11.333,30.772
			c-11.627,5.368-25.404,0.294-30.772-11.333c5.368,11.627,0.294,25.404-11.333,30.772c-11.627,5.368-25.404,0.294-30.772-11.333
			C2260.996,1202.997,2284.818,1143.956,2284.818,1143.956z"/>
		<path id="path3_21_" fill="#105A7B" d="M2260.458,1250.797c7.901-2.413,14.574-8.866,17.417-17.961
			c3.104-9.932,0.228-19.93-8.133-27.373c-6.442-5.735-15.179-10.474-25.055-14.694c-12.679-5.417-23.574-11.596-30.504-19.916
			c-1.226,10.759-6.942,21.903-14.568,33.391c-5.94,8.948-10.642,17.704-12.879,26.034c-2.904,10.81,0.179,20.747,8.225,27.345
			c14.509,11.899,35.812,7.079,41.437-12.464C2243.99,1251.681,2252.801,1253.136,2260.458,1250.797z"/>
		<path fill="#900000" enable-background="new    " d="M2100.435,1265.046c4.339,10.302,13.996,15.802,26.087,15.323
			c1.051-0.042,2.065-0.137,3.046-0.282c10.345-1.535,16.809-8.667,19.792-17.548c5.674,7.965,14.008,12.441,24.949,10.817
			c0.724-0.107,1.46-0.242,2.207-0.403c10.776-2.332,19.159-10.226,20.222-23.348c1.913-23.604-26.624-43.21-58.447-61.681
			C2111.371,1214.951,2091.54,1243.928,2100.435,1265.046z"/>
		<path fill="#8E00FC" d="M2057.866,1262.244c-1.784,20.749-24.968,27.701-38.02,15.24c-4.047-3.864-6.331-8.812-6.87-13.83
			c-2.811-26.201,45.096-44.901,45.067-69.802c-0.051,21.372,35.915,39.095,43.474,59.697c5.074,13.828-4.07,27.953-17.671,29.976
			c-12.852,1.912-24.369-7.156-25.794-19.75C2057.995,1263.268,2057.996,1262.753,2057.866,1262.244z"/>
		<path fill="#FF0000" d="M1979.926,1188.13c0,0,39.625,49.312,36.181,72.734c-1.863,12.67-13.644,21.431-26.314,19.568
			s-21.431-13.644-19.568-26.314c-1.863,12.67-13.644,21.431-26.314,19.568s-21.431-13.644-19.568-26.314
			C1927.698,1224.538,1979.926,1188.13,1979.926,1188.13z"/>
		<path id="path3_22_" fill="#0E0000" d="M1901.473,1264.446c7.948,2.251,17.053,0.443,24.37-5.663
			c7.989-6.667,10.988-16.629,7.992-27.414c-2.308-8.311-7.085-17.027-13.101-25.924c-7.723-11.422-13.534-22.517-14.852-33.265
			c-6.859,8.38-17.701,14.651-30.334,20.176c-9.84,4.303-18.536,9.117-24.929,14.907c-8.297,7.514-11.088,17.536-7.899,27.441
			c5.75,17.862,26.268,25.35,41.582,11.97C1887.151,1256.268,1893.769,1262.264,1901.473,1264.446z"/>
		<path fill="#FF5291" enable-background="new    " d="M1759.058,1190.946c-1.783,11.036,3.488,20.819,13.994,26.823
			c0.913,0.522,1.823,0.979,2.732,1.376c9.584,4.184,18.847,1.564,26.085-4.384c0.588,9.762,5.28,17.975,15.418,22.4
			c0.671,0.293,1.366,0.569,2.085,0.828c10.373,3.737,21.666,1.488,29.525-9.073c14.138-18.999,0.337-50.753-16.85-83.287
			C1794.893,1154.271,1762.714,1168.324,1759.058,1190.946z"/>
		<path fill="#FF0F00" d="M1724.373,1167.075c-12.214,16.868-35.667,10.889-40.439-6.514c-1.48-5.396-0.89-10.814,1.233-15.393
			c11.082-23.908,61.779-15.268,74.576-36.629c-11.049,18.294,10.655,52.008,6.526,73.56c-2.771,14.467-17.883,21.866-30.584,16.597
			c-12.002-4.979-17.205-18.683-11.941-30.213C1723.956,1168.019,1724.222,1167.578,1724.373,1167.075z"/>
		<path fill="#FFEC00" d="M1691.89,1063.876c0,0,12.559,62-1.254,81.226c-7.472,10.4-21.961,12.774-32.361,5.302
			s-12.774-21.961-5.302-32.361c-7.472,10.4-21.961,12.774-32.361,5.302c-10.4-7.472-12.774-21.961-5.302-32.361
			C1628.776,1072.24,1691.89,1063.876,1691.89,1063.876z"/>
		<path id="path3_23_" fill="#19AD00" d="M1588.691,1098.605c6.406,5.217,15.482,7.164,24.618,4.458
			c9.977-2.955,16.678-10.913,18.201-22.003c1.174-8.545,0.243-18.44-1.755-28.993c-2.565-13.548-3.503-26.037-0.454-36.427
			c-9.618,4.976-22.057,6.437-35.845,6.503c-10.74,0.052-20.631,1.025-28.795,3.807c-10.595,3.611-17.129,11.706-18.127,22.064
			c-1.799,18.678,14.071,33.684,33.434,27.468C1578.782,1085.421,1582.482,1093.548,1588.691,1098.605z"/>
		<path fill="#D5D92C" enable-background="new    " d="M1483.503,981.466c-5.214,9.889-3.343,20.842,4.695,29.888
			c0.699,0.786,1.415,1.51,2.15,2.176c7.747,7.026,17.361,7.501,26.12,4.176c-2.56,9.438-0.737,18.72,7.457,26.151
			c0.542,0.492,1.113,0.976,1.712,1.451c8.636,6.854,20.056,8.329,30.877,0.83c19.465-13.489,16.527-47.988,10.629-84.307
			C1529.173,958.155,1494.191,961.196,1483.503,981.466z"/>
		<path fill="#037700" d="M1457.034,952.182c-15.69,13.695-37.202,2.602-37.944-15.428c-0.23-5.59,1.561-10.737,4.658-14.723
			c16.168-20.809,63.63-1.006,80.897-18.947c-14.875,15.346-1.295,53.072-10.158,73.147c-5.949,13.475-22.336,17.292-33.53,9.306
			c-10.578-7.547-12.57-22.069-4.852-32.123C1456.417,953.008,1456.774,952.638,1457.034,952.182z"/>
		<path fill="#C64E00" d="M1439.623,839.48c0,0,12.139,62.084-1.804,81.216c-7.543,10.349-22.047,12.625-32.397,5.082
			c-10.349-7.543-12.625-22.047-5.082-32.397c-7.543,10.349-22.047,12.625-32.396,5.082c-10.349-7.543-12.625-22.047-5.082-32.397
			C1376.454,847.416,1439.623,839.48,1439.623,839.48z"/>
		<path id="path3_24_" fill="#FF3700" d="M1384.039,861.92c5.793-5.89,8.58-14.744,6.74-24.094
			c-2.009-10.21-9.306-17.625-20.205-20.179c-8.398-1.968-18.337-1.966-29.03-0.963c-13.728,1.287-26.251,1.054-36.31-2.954
			c4.054,10.041,4.346,22.563,3.123,36.296c-0.953,10.698-0.908,20.636,1.099,29.025c2.604,10.887,10.054,18.149,20.273,20.11
			c18.428,3.537,34.852-10.86,30.474-30.719C1369.986,870.552,1378.424,867.629,1384.039,861.92z"/>
		<path fill="#E4E000" enable-background="new    " d="M1260.888,957.648c9.584,5.754,20.625,4.493,30.102-3.032
			c0.824-0.654,1.586-1.329,2.292-2.026c7.444-7.345,8.451-16.919,5.617-25.848c9.282,3.079,18.651,1.773,26.524-5.996
			c0.521-0.514,1.036-1.057,1.544-1.629c7.322-8.243,9.428-19.564,2.54-30.783c-12.39-20.182-46.998-19.162-83.588-15.285
			C1240.144,910.757,1241.242,945.853,1260.888,957.648z"/>
		<path fill="#FF7C00" d="M1230.702,982.644c12.901,16.349,0.756,37.285-17.289,37.133c-5.595-0.047-10.647-2.091-14.474-5.382
			c-19.983-17.179,2.147-63.601-14.917-81.736c14.59,15.616,52.943,3.922,72.554,13.769c13.163,6.609,16.165,23.165,7.634,33.949
			c-8.062,10.191-22.665,11.462-32.324,3.255C1231.496,983.302,1231.145,982.926,1230.702,982.644z"/>
		<path fill="#FF0020" d="M1122.315,988.055c0,0,63.21,2.492,78.615,20.468c8.333,9.724,7.206,24.363-2.519,32.696
			c-9.724,8.333-24.363,7.206-32.696-2.519c8.333,9.724,7.206,24.363-2.519,32.696c-9.724,8.333-24.363,7.206-32.696-2.519
			C1115.483,1051.353,1122.315,988.055,1122.315,988.055z"/>
		<path id="path3_25_" fill="#FF0000" d="M1132.187,1096.554c6.553-5.03,10.541-13.413,10.014-22.927
			c-0.575-10.39-6.774-18.745-17.214-22.784c-8.044-3.112-17.888-4.488-28.616-4.977c-13.774-0.628-26.143-2.594-35.551-7.957
			c2.624,10.506,1.178,22.947-1.936,36.379c-2.426,10.462-3.759,20.311-2.934,28.897c1.071,11.142,7.442,19.367,17.291,22.726
			c17.76,6.057,36.021-5.926,34.436-26.2C1117.074,1103.155,1125.835,1101.429,1132.187,1096.554z"/>
		<path fill="#FF000D" enable-background="new    " d="M991.925,1170.287c8.194,7.605,19.258,8.644,30.081,3.233
			c0.941-0.47,1.826-0.974,2.66-1.51c8.797-5.655,11.754-14.815,10.82-24.137c8.449,4.925,17.886,5.576,27.19-0.405
			c0.616-0.396,1.232-0.821,1.846-1.276c8.862-6.558,13.255-17.203,8.826-29.6c-7.968-22.301-42.044-28.43-78.648-32.172
			C981.283,1120.129,975.129,1154.699,991.925,1170.287z"/>
		<path fill="#531D00" d="M953.829,1186.666c7.792,19.313-9.743,35.997-27.019,30.785c-5.357-1.616-9.631-4.996-12.381-9.229
			c-14.355-22.098,19.918-60.44,8.632-82.636c9.619,19.085,49.712,18.629,65.77,33.586c10.778,10.039,9.01,26.772-2.206,34.727
			c-10.598,7.517-24.971,4.637-31.937-5.951C954.407,1187.52,954.175,1187.061,953.829,1186.666z"/>
		<path fill="#FFEC00" d="M850.659,1156.847c0,0,57.995,25.265,65.825,47.606c4.235,12.086-2.129,25.317-14.214,29.552
			c-12.086,4.235-25.317-2.129-29.552-14.214c4.235,12.086-2.129,25.317-14.214,29.552c-12.086,4.235-25.317-2.129-29.552-14.214
			C821.318,1213.348,850.659,1156.847,850.659,1156.847z"/>
		<path id="path3_26_" fill="#FF0000" d="M817.999,1261.317c8.038-1.906,15.109-7.92,18.525-16.816
			c3.73-9.714,1.496-19.875-6.374-27.835c-6.064-6.134-14.481-11.419-24.069-16.259c-12.309-6.213-22.789-13.073-29.175-21.818
			c-1.908,10.659-8.322,21.417-16.664,32.396c-6.497,8.552-11.747,16.991-14.51,25.162c-3.586,10.604-1.142,20.716,6.468,27.813
			c13.722,12.799,35.289,9.344,42.146-9.801C801.508,1261.151,810.208,1263.164,817.999,1261.317z"/>
		<path fill="#745000" enable-background="new    " d="M658.061,1267.175c3.889,10.481,13.297,16.394,25.398,16.44
			c1.052,0.004,2.069-0.047,3.055-0.15c10.401-1.084,17.169-7.93,20.534-16.673c5.324,8.203,13.455,13.036,24.456,11.889
			c0.728-0.076,1.469-0.178,2.223-0.307c10.867-1.862,19.584-9.385,21.216-22.449c2.935-23.499-24.725-44.324-55.718-64.158
			C671.159,1217.601,650.09,1245.691,658.061,1267.175z"/>
		<path fill="#FF00AC" d="M615.935,1263.101c-2.436,20.683-25.828,26.901-38.481,14.036c-3.923-3.989-6.051-9.006-6.431-14.04
			c-1.985-26.277,46.487-43.459,47.242-68.348c-0.724,21.359,34.667,40.207,41.573,61.036c4.636,13.981-4.948,27.811-18.605,29.405
			c-12.906,1.507-24.132-7.92-25.16-20.552C616.032,1264.128,616.049,1263.614,615.935,1263.101z"/>
		<path fill="#C8EDC9" d="M540.313,1186.659c0,0,38.11,50.492,33.957,73.798c-2.246,12.608-14.288,21.007-26.896,18.761
			c-12.608-2.247-21.007-14.288-18.761-26.896c-2.246,12.608-14.288,21.007-26.896,18.761
			c-12.608-2.246-21.007-14.288-18.761-26.896C487.005,1221.465,540.313,1186.659,540.313,1186.659z"/>
		<path id="path3_27_" fill="#FFAD24" d="M459.132,1260.259c7.85,2.574,17.021,1.138,24.58-4.664
			c8.255-6.335,11.657-16.167,9.104-27.065c-1.968-8.398-6.384-17.302-12.032-26.437c-7.251-11.728-12.604-23.051-13.482-33.844
			c-7.195,8.093-18.284,13.916-31.132,18.921c-10.007,3.898-18.892,8.353-25.516,13.877c-8.597,7.169-11.794,17.069-9.012,27.096
			c5.016,18.082,25.211,26.401,41.059,13.657C445.156,1251.503,451.524,1257.764,459.132,1260.259z"/>
		<path fill="#2CE1B5" enable-background="new    " d="M320.115,1178.797c-2.495,10.897,2.132,21.001,12.227,27.674
			c0.878,0.58,1.756,1.095,2.637,1.55c9.293,4.796,18.706,2.781,26.315-2.685c-0.046,9.779,4.105,18.279,13.934,23.352
			c0.651,0.336,1.327,0.657,2.027,0.962c10.109,4.401,21.524,2.889,30.051-7.142c15.339-18.043,3.625-50.625-11.42-84.203
			C358.25,1144.521,325.229,1156.46,320.115,1178.797z"/>
		<path fill="#FF0A00" d="M287.264,1150.894c-13.807,15.591-36.562,7.344-39.607-10.443c-0.944-5.515,0.173-10.849,2.734-15.198
			c13.37-22.708,62.977-9.145,77.805-29.15c-12.787,17.124,5.512,52.801-0.708,73.846c-4.175,14.126-19.938,20.01-32.062,13.523
			c-11.457-6.13-15.293-20.278-8.926-31.237C286.757,1151.792,287.065,1151.38,287.264,1150.894z"/>
		<path fill="#FF1700" d="M270.002,1044.903c0,0,1.202,63.248-15.845,79.676c-9.221,8.887-23.901,8.615-32.787-0.606
			c-8.887-9.221-8.615-23.901,0.606-32.787c-9.221,8.887-23.901,8.615-32.787-0.606c-8.887-9.221-8.615-23.901,0.606-32.787
			C206.414,1041.777,270.002,1044.903,270.002,1044.903z"/>
		<path id="path3_28_" fill="#F60074" d="M160.916,1056.134c4.77,6.745,12.991,11.057,22.518,10.902
			c10.404-0.168,18.995-6.036,23.439-16.31c3.424-7.917,5.184-17.698,6.092-28.4c1.166-13.739,3.614-26.022,9.341-35.212
			c-10.6,2.211-22.976,0.28-36.275-3.357c-10.36-2.833-20.149-4.55-28.761-4.061c-11.176,0.634-19.643,6.679-23.384,16.389
			c-6.747,17.51,4.513,36.225,24.834,35.434C154.91,1040.775,156.292,1049.597,160.916,1056.134z"/>
		<path fill="#9CC600" enable-background="new    " d="M97.859,907.814c-8.495,7.267-10.798,18.138-6.665,29.511
			c0.359,0.989,0.758,1.926,1.195,2.816c4.607,9.388,13.368,13.378,22.735,13.519c-5.862,7.828-7.593,17.127-2.719,27.057
			c0.322,0.657,0.674,1.318,1.055,1.98c5.498,9.557,15.567,15.143,28.391,12.166c23.069-5.355,33.069-38.502,40.989-74.435
			C148.907,903.001,115.272,892.919,97.859,907.814z"/>
		<path fill="#1D008B" d="M87.729,866.34c-20.316,4.579-33.958-15.413-26.032-31.625c2.458-5.027,6.482-8.701,11.103-10.733
			c24.122-10.609,56.443,29.392,80.168,21.828c-20.385,6.419-26.392,46.063-43.74,59.502c-11.644,9.021-27.873,4.581-33.919-7.77
			c-5.712-11.671-0.555-25.392,11.017-30.562C86.793,866.772,87.284,866.617,87.729,866.34z"/>
		<path fill="#4B0000" d="M134.494,769.331c0,0-34.605,52.955-57.941,56.94c-12.624,2.155-24.604-6.331-26.76-18.955
			c-2.155-12.624,6.331-24.604,18.955-26.76c-12.624,2.155-24.604-6.331-26.76-18.955c-2.155-12.624,6.331-24.604,18.955-26.76
			C83.692,730.958,134.494,769.331,134.494,769.331z"/>
		<path id="path3_29_" fill="#27001B" d="M37.438,719.103c0.445,8.249,5.105,16.277,13.251,21.222
			c8.895,5.399,19.291,5.009,28.525-1.319c7.115-4.876,13.814-12.218,20.283-20.791c8.305-11.007,16.92-20.098,26.661-24.826
			c-10.149-3.775-19.594-12.001-28.913-22.163c-7.259-7.916-14.629-14.583-22.178-18.757c-9.796-5.416-20.182-4.81-28.52,1.415
			c-15.036,11.226-15.476,33.063,2.144,43.217C40.536,702.905,37.007,711.108,37.438,719.103z"/>
	</g>
	<g>
		<path fill="#FF2EBA" d="M2371.118,658.727c-20.799-1.049-28.567-23.972-16.576-37.457c3.718-4.181,8.582-6.639,13.579-7.355
			c26.085-3.736,46.468,43.479,71.352,42.569c-21.36,0.705-37.8,37.276-58.121,45.559c-13.64,5.56-28.079-3.078-30.583-16.599
			c-2.366-12.777,6.289-24.607,18.825-26.477C2370.1,658.892,2370.614,658.874,2371.118,658.727z"/>
		<path fill="#1D3C00" d="M2428.252,566.721c0,0-31.725,54.729-54.814,59.956c-12.49,2.827-24.908-5.007-27.735-17.497
			c-2.827-12.49,5.007-24.908,17.497-27.735c-12.49,2.827-24.908-5.007-27.735-17.497c-2.827-12.49,5.007-24.908,17.497-27.735
			C2375.472,531.118,2428.252,566.721,2428.252,566.721z"/>
		<path id="path3_30_" fill="#FF0038" d="M2326.508,537.918c3.612,7.43,11.024,13.019,20.45,14.413
			c10.294,1.522,19.723-2.873,25.776-12.289c4.664-7.256,7.988-16.623,10.62-27.035c3.38-13.367,7.79-25.09,14.932-33.229
			c-10.819,0.462-22.716-3.453-35.25-9.2c-9.762-4.477-19.143-7.76-27.72-8.676c-11.131-1.188-20.467,3.402-25.734,12.376
			c-9.499,16.183-1.426,36.477,18.754,38.995C2323.075,521.787,2323.007,530.717,2326.508,537.918z"/>
		<path fill="#FF006E" enable-background="new    " d="M2260.43,408.526c-6.381,9.179-5.859,20.279,1.016,30.237
			c0.598,0.866,1.22,1.671,1.868,2.422c6.832,7.918,16.317,9.561,25.416,7.329c-3.692,9.056-3.014,18.491,4.213,26.865
			c0.478,0.554,0.986,1.104,1.522,1.649c7.736,7.855,18.891,10.713,30.545,4.589c20.964-11.015,22.256-45.615,20.83-82.382
			C2308.601,390.958,2273.51,389.711,2260.43,408.526z"/>
		<path fill="#E900E3" d="M2233.319,391.034c-12.679,16.521-35.957,9.891-40.242-7.639c-1.329-5.435-0.588-10.834,1.662-15.353
			c11.744-23.59,62.18-13.54,75.568-34.536c-11.554,17.979,9.202,52.285,4.474,73.714c-3.174,14.384-18.485,21.359-31.034,15.738
			c-11.859-5.311-16.677-19.155-11.095-30.534C2232.876,391.965,2233.154,391.532,2233.319,391.034z"/>
		<path fill="#FF00EB" d="M2182.367,292.628c0,0,31.577,54.815,24.575,77.429c-3.788,12.233-16.775,19.08-29.009,15.293
			s-19.08-16.775-15.293-29.009c-3.788,12.233-16.775,19.08-29.009,15.293s-19.08-16.775-15.293-29.009
			C2125.165,320.579,2182.367,292.628,2182.367,292.628z"/>
		<path id="path3_31_" fill="#FFCA74" d="M2107.068,367.094c8.247,0.482,16.747-3.249,22.573-10.79
			c6.362-8.234,7.139-18.609,1.886-28.493c-4.048-7.617-10.593-15.096-18.388-22.485c-10.007-9.486-18.076-19.065-21.683-29.275
			c-4.888,9.662-14.121,18.126-25.263,26.248c-8.679,6.326-16.131,12.903-21.123,19.936c-6.479,9.128-7.041,19.516-1.79,28.499
			c9.47,16.2,31.121,19.083,43.185,2.712C2091.319,362.2,2099.075,366.626,2107.068,367.094z"/>
		<path fill="#740000" enable-background="new    " d="M1961.446,359.391c4.793,10.1,14.684,15.165,26.742,14.149
			c1.048-0.088,2.057-0.228,3.03-0.417c10.266-1.992,16.407-9.405,18.994-18.41c6.022,7.705,14.546,11.807,25.405,9.699
			c0.719-0.139,1.448-0.306,2.187-0.501c10.662-2.808,18.686-11.066,19.166-24.223c0.863-23.666-28.516-41.986-61.128-59.025
			C1970.148,308.86,1951.622,338.689,1961.446,359.391z"/>
		<path fill="#FFEF00" d="M1927.971,368.531c5.506,20.084-13.84,34.629-30.398,27.455c-5.134-2.225-8.989-6.076-11.231-10.599
			c-11.704-23.61,26.773-57.732,18.129-81.084c7.347,20.069,47.225,24.252,61.446,40.965c9.545,11.218,5.854,27.634-6.206,34.239
			c-11.397,6.242-25.34,1.718-31.035-9.604C1928.446,369.447,1928.269,368.964,1927.971,368.531z"/>
		<path fill="#FF00DE" d="M1821.1,342.764c0,0,61.438,15.07,72.941,35.762c6.222,11.193,2.193,25.311-9,31.533
			c-11.193,6.222-25.311,2.193-31.534-9c6.222,11.193,2.193,25.311-9,31.533s-25.311,2.193-31.533-9
			C1801.76,403.421,1821.1,342.764,1821.1,342.764z"/>
		<path id="path3_32_" fill="#090000" d="M1817.208,450.185c6.711-4.818,10.964-13.069,10.742-22.595
			c-0.243-10.403-6.171-18.952-16.476-23.323c-7.941-3.368-17.735-5.058-28.443-5.889c-13.747-1.068-26.047-3.429-35.278-9.09
			c2.287,10.584,0.443,22.973-3.099,36.298c-2.759,10.379-4.407,20.181-3.857,28.789c0.714,11.171,6.818,19.595,16.555,23.267
			c17.557,6.622,36.192-4.771,35.257-25.086C1801.891,456.3,1810.704,454.855,1817.208,450.185z"/>
		<path fill="#FFA500" enable-background="new    " d="M1686.493,528.89c9.102,6.491,20.208,6.102,30.247-0.653
			c0.873-0.587,1.686-1.2,2.444-1.839c7.999-6.737,9.756-16.201,7.634-25.326c9.011,3.8,18.453,3.235,26.913-3.89
			c0.56-0.472,1.116-0.972,1.667-1.502c7.948-7.641,10.938-18.761,4.955-30.488c-10.763-21.095-45.344-22.801-82.126-21.816
			C1669.504,480.511,1667.836,515.585,1686.493,528.89z"/>
		<path fill="#179AD4" d="M1658.229,553.044c12.988,16.279,0.956,37.28-17.089,37.226c-5.595-0.017-10.658-2.034-14.503-5.304
			c-20.074-17.071,1.806-63.612-15.356-81.655c14.674,15.538,52.963,3.638,72.627,13.379c13.199,6.539,16.289,23.078,7.816,33.908
			c-8.007,10.234-22.603,11.583-32.306,3.429C1659.027,553.698,1658.674,553.324,1658.229,553.044z"/>
		<path fill="#FF9900" d="M1549.708,563.583c0,0,63.205-2.617,80.01,14.057c9.091,9.02,9.148,23.702,0.128,32.792
			s-23.702,9.148-32.792,0.128c9.091,9.02,9.148,23.702,0.128,32.792c-9.02,9.091-23.702,9.148-32.792,0.128
			C1548.007,627.226,1549.708,563.583,1549.708,563.583z"/>
		<path id="path3_33_" fill="#AA5300" d="M1572.363,640.759c1.443-8.134-1.27-17.012-8.078-23.679
			c-7.435-7.28-17.647-9.265-28.078-5.202c-8.037,3.13-16.23,8.757-24.479,15.635c-10.59,8.83-21.046,15.725-31.608,18.114
			c9.025,5.984,16.352,16.142,23.116,28.157c5.269,9.359,10.93,17.528,17.332,23.308c8.308,7.502,18.56,9.273,28.095,5.107
			c17.195-7.513,22.588-28.678,7.739-42.573C1565.662,655.829,1570.964,648.643,1572.363,640.759z"/>
		<path fill="#8500C8" enable-background="new    " d="M1628.82,736.215c5.61-9.669,4.184-20.69-3.482-30.053
			c-0.666-0.814-1.353-1.566-2.06-2.261c-7.456-7.333-17.043-8.197-25.929-5.229c2.94-9.327,1.493-18.675-6.393-26.431
			c-0.522-0.513-1.073-1.02-1.651-1.519c-8.352-7.197-19.703-9.134-30.818-2.079c-19.995,12.691-18.456,47.28-14.032,83.808
			C1582.244,757.658,1617.32,756.035,1628.82,736.215z"/>
		<path fill="#FF008D" d="M1654.62,764.657c15.658-13.731,37.196-2.688,37.98,15.34c0.243,5.59-1.536,10.741-4.624,14.734
			c-16.119,20.846-63.627,1.154-80.853,19.136c14.839-15.38,1.172-53.075,9.988-73.171c5.918-13.489,22.296-17.344,33.508-9.384
			c10.595,7.522,12.621,22.04,4.927,32.111C1655.236,763.83,1654.879,764.2,1654.62,764.657z"/>
		<path fill="#F70000" d="M1670.567,872.884c0,0-6.143-62.96,9.566-80.671c8.498-9.58,23.154-10.458,32.734-1.959
			c9.58,8.498,10.458,23.154,1.959,32.734c8.498-9.58,23.154-10.458,32.734-1.959s10.458,23.154,1.959,32.734
			C1734.205,871.028,1670.567,872.884,1670.567,872.884z"/>
		<path id="path3_34_" fill="#A00000" d="M1773.797,842.912c-6.579-4.996-15.717-6.633-24.756-3.618
			c-9.871,3.293-16.297,11.474-17.442,22.609c-0.882,8.58,0.385,18.438,2.741,28.916c3.024,13.452,4.387,25.903,1.693,36.391
			c9.443-5.3,21.826-7.183,35.603-7.719c10.732-0.417,20.584-1.727,28.649-4.785c10.466-3.969,16.721-12.282,17.366-22.668
			c1.162-18.729-15.209-33.186-34.349-26.314C1784.148,855.751,1780.174,847.754,1773.797,842.912z"/>
		<path fill="#8C3500" enable-background="new    " d="M1887.996,942.284c3.193-10.714-0.772-21.095-10.415-28.405
			c-0.838-0.635-1.682-1.206-2.532-1.717c-8.964-5.386-18.488-3.983-26.433,0.981c0.677-9.756-2.916-18.506-12.398-24.202
			c-0.628-0.377-1.281-0.741-1.961-1.091c-9.804-5.044-21.293-4.272-30.449,5.187c-16.471,17.016-6.884,50.285,5.962,84.765
			C1847.728,974.028,1881.452,964.245,1887.996,942.284z"/>
		<path fill="#100000" d="M1919.628,956.421c9.188-18.689,33.315-16.758,40.959-0.411c2.37,5.069,2.704,10.508,1.385,15.38
			c-6.884,25.437-58.311,25.486-67.316,48.701c7.799-19.898-19.289-49.46-18.86-71.4c0.288-14.727,13.931-24.573,27.34-21.526
			c12.671,2.88,20.114,15.508,16.874,27.761C1919.879,955.421,1919.692,955.9,1919.628,956.421z"/>
		<path fill="#FF0064" d="M1985.573,1045.336c0,0-38.928-49.863-35.156-73.234c2.041-12.643,13.944-21.238,26.586-19.197
			c12.643,2.04,21.238,13.944,19.197,26.586c2.04-12.643,13.944-21.238,26.586-19.197c12.643,2.04,21.238,13.944,19.197,26.586
			C2038.307,1009.665,1985.573,1045.336,1985.573,1045.336z"/>
		<path id="path3_35_" fill="#470000" d="M2047.97,962.635c-8.197,1.024-15.878,6.238-20.237,14.711
			c-4.76,9.253-3.639,19.596,3.323,28.362c5.365,6.754,13.16,12.92,22.167,18.77c11.564,7.51,21.239,15.463,26.641,24.849
			c3.051-10.39,10.593-20.39,20.074-30.401c7.385-7.798,13.518-15.619,17.15-23.443c4.713-10.153,3.378-20.471-3.418-28.35
			c-12.256-14.209-34.07-13.111-42.959,5.179C2064.346,964.586,2055.915,961.643,2047.97,962.635z"/>
		<path fill="#65D549" enable-background="new    " d="M2195.807,949.18c-5.985-9.442-16.418-13.268-28.263-10.794
			c-1.03,0.215-2.014,0.477-2.957,0.782c-9.948,3.225-15.143,11.33-16.615,20.582c-6.914-6.916-15.874-9.951-26.395-6.539
			c-0.696,0.226-1.4,0.48-2.11,0.763c-10.241,4.083-17.202,13.255-16.08,26.372c2.02,23.596,33.408,38.209,67.849,51.158
			C2193.311,1000.394,2208.074,968.535,2195.807,949.18z"/>
		<path fill="#EC00F0" d="M2223.622,931.687c-9.772-18.39,5.918-36.82,23.645-33.447c5.497,1.046,10.102,3.96,13.28,7.881
			c16.592,20.472-13.476,62.194,0.074,83.086c-11.565-17.972-51.39-13.318-68.927-26.51c-11.771-8.855-11.766-25.68-1.445-34.767
			c9.752-8.587,24.348-7.228,32.385,2.572C2222.958,930.898,2223.236,931.33,2223.622,931.687z"/>
		<path fill="#FFEFB9" d="M2334.25,927.699c0,0-63.091,4.607-80.413-11.529c-9.371-8.729-9.89-23.402-1.161-32.772
			c8.729-9.37,23.402-9.89,32.772-1.161c-9.37-8.729-9.89-23.402-1.161-32.772c8.729-9.37,23.402-9.89,32.772-1.161
			C2333.945,864.034,2334.25,927.699,2334.25,927.699z"/>
		<path id="path3_36_" fill="#FF0099" d="M2300.075,827.567c-4.016,7.219-4.346,16.496-0.084,25.019
			c4.654,9.307,13.662,14.513,24.847,14.073c8.619-0.339,18.199-2.986,28.239-6.798c12.89-4.894,25.023-8.002,35.787-6.817
			c-6.581-8.599-10.195-20.592-12.671-34.156c-1.929-10.565-4.617-20.134-8.784-27.686c-5.408-9.801-14.521-14.818-24.894-13.989
			c-18.705,1.495-30.705,19.745-21.198,37.722C2311.323,815.506,2303.968,820.57,2300.075,827.567z"/>
		<path fill="#980000" enable-background="new    " d="M2369.936,699.097c-11.177-0.191-20.108,6.422-24.553,17.677
			c-0.386,0.978-0.709,1.944-0.972,2.901c-2.774,10.083,1.14,18.878,8.06,25.193c-9.578,1.974-17.038,7.79-19.972,18.455
			c-0.194,0.706-0.369,1.434-0.522,2.182c-2.219,10.8,1.617,21.657,13.192,27.929c20.821,11.283,50.282-6.905,80.032-28.558
			C2411.347,729.334,2392.848,699.489,2369.936,699.097z"/>
		<path fill="#FF5B00" d="M2371.027,666.094c-20.712-2.171-27.229-25.481-14.527-38.298c3.939-3.974,8.928-6.165,13.956-6.61
			c26.249-2.321,44.05,45.927,68.948,46.363c-21.367-0.45-39.76,35.178-60.499,42.351c-13.921,4.814-27.872-4.591-29.641-18.228
			c-1.672-12.886,7.61-24.231,20.229-25.421C2370.002,666.203,2370.516,666.214,2371.027,666.094z"/>
	</g>
</g>
</svg>
