<svg xmlns="http://www.w3.org/2000/svg" viewBox="0 0 237.7 237.32"><defs><style>.cls-1{isolation:isolate;}.cls-2{opacity:0.73;}.cls-3{opacity:0.75;}.cls-4{opacity:0.04;mix-blend-mode:multiply;}.cls-5{opacity:0.8;}.cls-6{opacity:0.1;mix-blend-mode:hue;}.cls-7{opacity:0.85;}.cls-8{opacity:0.88;}.cls-9{opacity:0.95;}.cls-10{opacity:0.83;}.cls-11{opacity:0.93;}.cls-12{opacity:0.46;}.cls-13{fill:#f7bca5;}.cls-14{fill:none;stroke:#092a49;stroke-linejoin:round;}</style></defs><title>covaya_icons</title><g class="cls-1"><g id="ICONS"><g id="PINK_BKGD" data-name="PINK BKGD"><path class="cls-13" d="M155.49,127.29c-12.84,4.13-6.63,2.06-13.52-12.44-6-12.66-20.08-17.19-19.65-19.48.18-.91.88-.87,1.59-1.22,2.58-1.26.12-3.78,2.24-3.4,14.72,2.58,30.34,11.71,33.68,32.93C160.1,125.36,158.11,126.44,155.49,127.29Z"/><path class="cls-13" d="M161.85,126.64c3.39-.88,9.76,12.44,6,16.07-6.42,6.28-10.66,6.92-11.27,2.75-.23-1.57-5.8-15-2.64-15.82C158,128.62,159,127.39,161.85,126.64Z"/></g><g id="LINES"><path class="cls-14" d="M93.77,104.38c1,1.36,8.84,5.88,21.84,6.2,10,.24,18.4-1.44,20.3-4.45"/><path class="cls-14" d="M113.22,94.57c-.52-.53-.26-4.09-.27-5.16h-.88a.55.55,0,0,1-.52-.56c0-.79,0-.83-.07-1.71,0-.61,0-2,.06-3.12s.59-.86,1.67-.88V80.33l-2.12,0a4.41,4.41,0,0,1,1.29-2.92,7.22,7.22,0,0,1,4.76-1.12,6.93,6.93,0,0,1,3.54.8c1.64.81,1.64,3.28,1.64,3.28h-2.24l.09,2.87c1.15-.1,1.59.3,1.67.76a18,18,0,0,1,.1,2.58,12.36,12.36,0,0,1-.19,2.49.48.48,0,0,1-.44.39h-.82a45.77,45.77,0,0,1,0,5.24"/><path class="cls-14" d="M69.54,123.73a73.45,73.45,0,0,1-10.81-1.8"/><path class="cls-14" d="M68.28,118.78a37.25,37.25,0,0,1-9.8-5.92"/><path class="cls-14" d="M112.75,116.73a29.31,29.31,0,0,0,7.79.17"/><path class="cls-14" d="M167.4,118.75A35.36,35.36,0,0,0,178,108.29"/><path class="cls-14" d="M168.06,122.41a48.5,48.5,0,0,0,9.45-1.42"/><path class="cls-14" d="M77,129s19.84,7.62,34.86,7.62c4.57,0,9.14,0,13.7-.24,10.54-.42,23.45-3.28,32.91-8.22"/><path class="cls-14" d="M157.61,126.15c-4,2.29-15.27,5.29-24.58,7-4.07.74-12.73,1-18.61,1a102.78,102.78,0,0,1-11-.79c-19.39-3.38-25.71-6.86-25.71-6.86"/><path class="cls-14" d="M99,150.89a124.33,124.33,0,0,0,13.59,1.42c4.73.27,10.14.19,14.18.19"/><path class="cls-14" d="M155.18,146.51c3.23-1.08,10.11-4.68,10.37-9.88"/><path class="cls-14" d="M113,89.41h7.53"/><path class="cls-14" d="M113.2,80.33h6.87"/><path class="cls-14" d="M113.21,83.14c1.25,0,4.79.08,7.29,0"/><path class="cls-14" d="M112,92.63a2.72,2.72,0,0,0,1.78,2.19,8.57,8.57,0,0,0,3,.49c3.5,0,4.61-.85,4.78-2.54"/><path class="cls-14" d="M112.91,91.54c-13,0-24.77,9.57-28,13.66-6.35,8-10.35,20.25-7.17,21.29,1.1,1.33,1,2.55-.72,2.52-2.68,0-6.29,8.58-6.89,9.77-1.7,3.38-.63,6.46,3.92,8.61,10.86,5.12,18.42,6.53,33.78,8.16a150.65,150.65,0,0,0,25-.13c3.93-.47,21.2-2.76,29-7.84,3.44-2.24,5.94-4.75,4.43-8.72a25.46,25.46,0,0,0-1.63-4c-2.59-4.51-4.37-7-6.21-6.65s-2.18-1.18-.19-2.49c2.45-1.6-7.22-23.57-20.87-29.52a51.28,51.28,0,0,0-16.81-4.48"/></g></g></g></svg>