<svg xmlns="http://www.w3.org/2000/svg" viewBox="0 0 237.7 237.32"><defs><style>.cls-1{isolation:isolate;}.cls-2{opacity:0.73;}.cls-3{opacity:0.75;}.cls-4{opacity:0.04;mix-blend-mode:multiply;}.cls-5{opacity:0.8;}.cls-6{opacity:0.1;mix-blend-mode:hue;}.cls-7{opacity:0.85;}.cls-8{opacity:0.88;}.cls-9{opacity:0.95;}.cls-10{opacity:0.83;}.cls-11{opacity:0.93;}.cls-12{opacity:0.46;}.cls-13{fill:#f7bca5;}.cls-14{fill:none;stroke:#092a49;stroke-linejoin:round;}.cls-15{fill:#092a49;}</style></defs><title>covaya_icons</title><g class="cls-1"><g id="ICONS"><g id="PINK_BKGD" data-name="PINK BKGD"><path class="cls-13" d="M93.91,74.52c-1.54,0-2.82,1.66-3.32,3.47a18.92,18.92,0,0,0-.36,5.69,129.44,129.44,0,0,1-.34,13.79c-.39,5.07-1.07,10.31.2,15.16.41,1.55,1.3,10.17,1.59,12.92.46,4.29,2.74,7.91,5,11.21,3.61,5.29,13.82,10.51,18.37,10.48-.35-2.47-.55-8.62-.55-9.86,0-4.42-3.16-2.64-9.28-6.34a11.82,11.82,0,0,1-4.36-4,21,21,0,0,1-2.17-5.67c-.52-2.07-1.31-16.53-1.4-18-.12-1.94-1.45-17.88-1.59-19.9C95.59,81.89,95.32,74.49,93.91,74.52Z"/><path class="cls-13" d="M114.75,148.8c-.83-10.33-1.66-20.73-1-31.07.21-3.3.58-6.57.64-9.87.21-11.58-3.29-23.46-.69-34.49.61-2.61,0-16.59,1.58-20.1,1.07-2.29,3.21-3.08,5.16-3.68,3.94,11.33,1.32,24.74,2.47,37.18.33,3.62,1,7.18,1.2,10.81.56,9.73-2.12,19.36-1.8,29.12.15,4.46.93,8.84,1.33,13.28a229.55,229.55,0,0,1,.55,35c-.2,2.76.87,7.12-6.43,7.93-3,.33-1.18-11.24-1.46-14.79Z"/><path class="cls-13" d="M128.68,116.94a4.11,4.11,0,0,0,2.9-2.21,20.82,20.82,0,0,0,1.33-3.53c1.17-3.39,3.27-6.35,5.06-9.46a45.77,45.77,0,0,0,5-12.42,38.07,38.07,0,0,0,.91-11.16c0-.72-.24-1.59-.93-1.76s-1.18.4-1.57.9a35.31,35.31,0,0,0-6.66,14.09,44.83,44.83,0,0,1-1.67,6.81c-.64,1.63-1.78,3-2.07,4.73-.38,2.24-.11,4.61-.46,6.88C130.43,110.61,129.48,116.85,128.68,116.94Z"/></g><g id="LINES"><path class="cls-14" d="M116.58,182.06c1.81-12.22-1.22-29.24-1.83-41.58-.29-5.87.06-11.75.16-17.62.39-24.09-4.35-44.16.26-67.83,1-5.37,5.45-7.51,8.11-6.48a7,7,0,0,1,3.7,3.37c3.32,6.56,4.13,9.07,5.93,16.19a88.89,88.89,0,0,1,.65,9c.34,6.36.39,17.66.23,20.66"/><path class="cls-14" d="M135.31,129.88c.17,6.14-.71,4.18-.53,10.32a96.82,96.82,0,0,1-.08,10.08c-.37,4.77-1.45,9.49-1.46,14.27,0,6.54.68,12.82,0,18.82"/><path class="cls-14" d="M130.68,108c.28-1.73.93-6.48,1.71-8.06.52-1.08,2.12-3,2.47-4.1s2-8.56,2-9.88c.24-3.46,4-8.2,6.78-10.18a4.19,4.19,0,0,1,6.51,2.88s-.29,14.6-.36,16.38c-.12,3.09-1.24,6.06-2,9l-1.13,4c-1.54,4.65-2.47,9.8-5.16,14-1.42,2.23-5.41,6.71-8.59,6.14s-3.49-4.5-3.57-7.42C129.2,113.64,129.51,115,130.68,108Z"/><path class="cls-14" d="M113.14,146.71a25.7,25.7,0,0,1-7.85-2.49,24.92,24.92,0,0,1-11.2-9.85,47.21,47.21,0,0,1-6.42-21.25c-.5-8.52-.2-14.64-.7-23.16-.27-4.54-.42-9.48,2.34-13.16C90.67,75,93,73.58,95.23,74.11s3.46,2.5,4.31,4.43c5.43,12.34,3.16,29.78,5.66,39.52a8.71,8.71,0,0,0,7.26,6.34"/><path class="cls-15" d="M118.72,64.52a.69.69,0,0,1-.11-.28A1.35,1.35,0,0,1,119,63.1a1.42,1.42,0,0,1,1.16-.39.86.86,0,0,1,.23.06.65.65,0,0,1,.23.31,1.29,1.29,0,0,1-.22,1.47C120,64.82,119,64.9,118.72,64.52Z"/><path class="cls-15" d="M122.2,73.11a.69.69,0,0,1-.11-.28,1.3,1.3,0,0,1,.37-1.13,1.4,1.4,0,0,1,1.15-.4.62.62,0,0,1,.23.07.58.58,0,0,1,.23.3,1.3,1.3,0,0,1-.22,1.48C123.49,73.41,122.48,73.49,122.2,73.11Z"/><path class="cls-15" d="M94.59,106a.7.7,0,0,1-.11-.27,1.31,1.31,0,0,1,.37-1.14,1.4,1.4,0,0,1,1.15-.4.62.62,0,0,1,.23.07.58.58,0,0,1,.23.3,1.3,1.3,0,0,1-.22,1.48C95.88,106.3,94.87,106.37,94.59,106Z"/><path class="cls-15" d="M89.63,115a.57.57,0,0,1-.11-.28,1.29,1.29,0,0,1,.36-1.14,1.39,1.39,0,0,1,1.16-.39.6.6,0,0,1,.23.06.65.65,0,0,1,.23.31,1.29,1.29,0,0,1-.22,1.47C90.91,115.32,89.91,115.4,89.63,115Z"/><path class="cls-15" d="M134.91,113.91a.69.69,0,0,1-.11-.28,1.29,1.29,0,0,1,.36-1.13,1.39,1.39,0,0,1,1.16-.4.62.62,0,0,1,.23.07.58.58,0,0,1,.23.3,1.3,1.3,0,0,1-.22,1.48C136.19,114.21,135.19,114.29,134.91,113.91Z"/><path class="cls-15" d="M140.76,107.79a.7.7,0,0,1-.11-.27,1.31,1.31,0,0,1,.37-1.14,1.41,1.41,0,0,1,1.16-.4.52.52,0,0,1,.22.07.5.5,0,0,1,.23.3,1.29,1.29,0,0,1-.22,1.48C142.05,108.09,141.05,108.17,140.76,107.79Z"/><path class="cls-15" d="M123.26,147a.69.69,0,0,1-.11-.28,1.3,1.3,0,0,1,.37-1.13,1.41,1.41,0,0,1,1.16-.4.52.52,0,0,1,.22.07.5.5,0,0,1,.23.3,1.29,1.29,0,0,1-.22,1.48C124.55,147.28,123.55,147.36,123.26,147Z"/><path class="cls-15" d="M117.55,138.82a.57.57,0,0,1-.11-.28,1.29,1.29,0,0,1,.36-1.14A1.43,1.43,0,0,1,119,137a.62.62,0,0,1,.23.07.65.65,0,0,1,.23.31,1.29,1.29,0,0,1-.22,1.47C118.83,139.12,117.83,139.2,117.55,138.82Z"/><path class="cls-15" d="M121.26,55.72a.7.7,0,0,1-.11-.27,1.31,1.31,0,0,1,.37-1.14,1.41,1.41,0,0,1,1.16-.4.52.52,0,0,1,.22.07.5.5,0,0,1,.23.3,1.29,1.29,0,0,1-.22,1.48C122.55,56,121.55,56.1,121.26,55.72Z"/><path class="cls-14" d="M149.93,91.64c.31,5-2,11.38-5.13,15.56s-6.89,8-9.46,12.48c-1,1.67-3.55,4.25-5.66,4.52"/><path class="cls-14" d="M131,183.71a305.27,305.27,0,0,1,2-53.47"/><path class="cls-14" d="M143.85,76.06a33.66,33.66,0,0,1-1.76,20.6c-.68,1.62-1.48,3.2-2.31,4.77q-4.77,9.1-10.44,17.83"/><path class="cls-14" d="M121.61,180.23c-1.47-13.07-1.08-24.11-.4-37.25a26.57,26.57,0,0,0-.16-6.43c-.4-2-.88-2.7-1.52-5.14s-.72-9.5-.84-12c-1.1-22.26-3.78-63-.59-69.69"/><path class="cls-14" d="M89.31,76.8c-2,10.84,1.88,15,1.75,24.81,0,4.39,2,11.16,2.53,15.52,1.94,15.16,8.65,20.55,19.16,22.35"/></g></g></g></svg>