<svg xmlns="http://www.w3.org/2000/svg" viewBox="0 0 237.7 237.32"><defs><style>.cls-1{isolation:isolate;}.cls-2{opacity:0.73;}.cls-3{opacity:0.75;}.cls-4{opacity:0.04;mix-blend-mode:multiply;}.cls-5{opacity:0.8;}.cls-6{opacity:0.1;mix-blend-mode:hue;}.cls-7{opacity:0.85;}.cls-8{opacity:0.88;}.cls-9{opacity:0.95;}.cls-10{opacity:0.83;}.cls-11{opacity:0.93;}.cls-12{opacity:0.46;}.cls-13{fill:#f7bca5;}.cls-14{fill:none;stroke:#092a49;stroke-linejoin:round;}.cls-15{fill:#092a49;}</style></defs><title>covaya_icons</title><g class="cls-1"><g id="ICONS"><g id="PINK_BKGD" data-name="PINK BKGD"><path class="cls-13" d="M82.17,156.35c14.49-2.1,26.23-3.43,40.46-3.1,21.49.5,38.29-1.52,38.29-1.8,0-.6-2.34-12.79-3.66-16-17.25,1.6-32.2,4.34-49.45,5.94l-9,.84c-3.86.35-6,.9-9.81.16a96.56,96.56,0,0,1-8-10.81,110.25,110.25,0,0,1-8.24-15.34A146.8,146.8,0,0,1,66.9,100C68.07,108.78,78.64,150.53,82.17,156.35Z"/><path class="cls-13" d="M103.47,115.8a14.83,14.83,0,0,1,4.3-4.2A174.39,174.39,0,0,1,114,128.79c2-.4,3.35-1,5-1.25-1.07-1.61-4.3-9.94-4.69-11.12l-3.7-11.18c-1.17.13-2.1.48-3.15.69a13.39,13.39,0,0,0-2.13,1.84l-1.89,1.77-1.64,1.52S103.07,114.67,103.47,115.8Z"/><path class="cls-13" d="M136.55,115.84c-.11-.13-.22-.27-.34-.39a6.49,6.49,0,0,0-4.61-2.06,6,6,0,0,0,1.7-3.86,9.22,9.22,0,0,0-3.05-5.35,8.17,8.17,0,0,0-4.73-1.38c-2.62-.06-5.3.58-6.84,2.37a5.81,5.81,0,0,0-.72,6.09,8.24,8.24,0,0,0,1,1.75,5.86,5.86,0,0,0,4.16,2.55,5.23,5.23,0,0,0-1.8,3.35,6.23,6.23,0,0,0,.8,3.94,4.73,4.73,0,0,0,.44.66,8.37,8.37,0,0,0,.82.87,11.4,11.4,0,0,0,.89.81,8.34,8.34,0,0,0,4.16,1.58,11.46,11.46,0,0,0,6.78-1.14,5.87,5.87,0,0,0,1.41-1,8.33,8.33,0,0,0,1.46-2.15,2.29,2.29,0,0,0,.27-.85A8.15,8.15,0,0,0,136.55,115.84Zm-13.46-4.15a3.25,3.25,0,0,1-.82-3.62,1.82,1.82,0,0,1,.8-.93,3.16,3.16,0,0,1,.61-.22,5.17,5.17,0,0,1,1.71-.24,4.21,4.21,0,0,1,3.16,2.23,2.94,2.94,0,0,1,.24.62,2.18,2.18,0,0,1-.12,1.34,2.66,2.66,0,0,1-2.37,1.83,5.37,5.37,0,0,1-1.25-.17A4.31,4.31,0,0,1,123.09,111.69Zm10.57,8.51a2.46,2.46,0,0,1-.53,1.3,2.8,2.8,0,0,1-1.14,1,10.68,10.68,0,0,1-2.89.27,4,4,0,0,1-2.22-1.17c-1.29-1.35-1.43-3.38-.11-4.45a4.27,4.27,0,0,1,2.21-.84,4.4,4.4,0,0,1,2.18.22,4,4,0,0,1,1.8,1.36A4.07,4.07,0,0,1,133.66,120.2Z"/></g><g id="LINES"><path class="cls-14" d="M66.48,98.37c.38,8.53,1.52,14.51,2.2,21.2,1.32,13.06,8.45,42.87,9.3,44.1.54.79,10.2-1.4,13.4-1.86,14.33-2,25.34-3.34,38.07-4.1,11.75-.71,18.7-.11,29.91-1.6-.29-6.12-3.43-14.4-4.9-20.37"/><path class="cls-14" d="M68.06,103.77A127.36,127.36,0,0,0,87.21,141a3.48,3.48,0,0,0,3.63,1.81c27.66-.48,54.84-8.09,82.5-8-7.55-12.54-10-14.18-15.73-28.55-1.23-3.08-4.51-15.87-6-20-1.15-3.16-2.37-4.68-5.51-4.39-7.71.74-15.67,1.27-23.35,2.22-9.24,1.15-52.18,5.11-55.25,6C63.73,91.21,67.1,100.75,68.06,103.77Z"/><path class="cls-14" d="M127.16,68c3.16-.47,6.27-.74,9-.93s5.64.14,7.66,1.74c2.65,2.08,3,6,3.2,9.13-6,.68-11.85,1-17.83,1.61-3.31.32-37.5,4.22-47.81,4.93-6.76.47-14.81,2.19-15.76,1.46s-.73-3.42-.71-4.29c0-2.75.34-5.31,3.29-7.57,2.45-1.89,11.53-2.45,15.54-2.72"/><path class="cls-14" d="M124.83,70.64a2.35,2.35,0,0,0-1.66,2.59A2.73,2.73,0,0,0,125,75.74a3.12,3.12,0,0,0,4.13-.95c1.17-1.7.37-4.18-1.84-4.25"/><path class="cls-14" d="M86.3,71.21c12.65-.67,29.82-2.62,38.3-3.06"/><path class="cls-14" d="M84.07,74.25A2.68,2.68,0,0,0,82,77.87a3.15,3.15,0,0,0,3.62,2.32c1.82-.31,2.82-.84,3.16-2.47.16-.74.26-3.22-2.31-3.52"/><path class="cls-14" d="M102.17,115a14.71,14.71,0,0,1,4.3-4.2,178.86,178.86,0,0,1,6.25,17.2c2-.41,3.35-1,5-1.26-1.07-1.61-4.3-9.94-4.69-11.12l-3.71-11.18c-1.17.13-2.1.48-3.14.69A13.47,13.47,0,0,0,104.1,107l-1.9,1.77-1.63,1.52S101.76,113.87,102.17,115Z"/><path class="cls-14" d="M135.24,115c-.1-.14-.22-.27-.33-.4a6.51,6.51,0,0,0-4.62-2.06,6,6,0,0,0,1.7-3.85,7.43,7.43,0,0,0-3.05-5.36,8.14,8.14,0,0,0-4.72-1.38c-2.63-.06-5.3.58-6.84,2.37a5.82,5.82,0,0,0-.73,6.09,8.8,8.8,0,0,0,1,1.76,5.84,5.84,0,0,0,4.15,2.54,5.23,5.23,0,0,0-1.8,3.35,6.21,6.21,0,0,0,.81,3.94,5.74,5.74,0,0,0,.43.66,11.24,11.24,0,0,0,.82.87c.29.28.58.56.89.81a8.44,8.44,0,0,0,4.16,1.59,11.58,11.58,0,0,0,6.79-1.15,6.06,6.06,0,0,0,1.4-1,6.18,6.18,0,0,0,1.74-3A7.76,7.76,0,0,0,135.24,115Zm-13.46-4.16a3.28,3.28,0,0,1-.82-3.62,1.82,1.82,0,0,1,.8-.93,4.73,4.73,0,0,1,2.33-.45,4.16,4.16,0,0,1,3.15,2.22,2.44,2.44,0,0,1,.25.63,2.31,2.31,0,0,1-.12,1.33,2.66,2.66,0,0,1-2.38,1.83,5.44,5.44,0,0,1-1.25-.17A4.36,4.36,0,0,1,121.78,110.88Zm10.58,8.51a2.47,2.47,0,0,1-.54,1.3,2.82,2.82,0,0,1-1.14,1,5.23,5.23,0,0,1-2.88.28,4,4,0,0,1-2.22-1.18c-1.3-1.34-1.46-3.41-.11-4.45a4.76,4.76,0,0,1,4.39-.61,5.14,5.14,0,0,1,1.79,1.35A3.65,3.65,0,0,1,132.36,119.39Z"/><path class="cls-15" d="M109.19,95.65a2.21,2.21,0,0,0-.43-.37,3,3,0,0,0-2.48-.27,1.72,1.72,0,0,0-1,2.06,2.24,2.24,0,0,0,1.7,1.79,3.48,3.48,0,0,0,.91,0,2.62,2.62,0,0,0,.89-.19,1.5,1.5,0,0,0,.81-.92,2.44,2.44,0,0,0,0-1.2A2.36,2.36,0,0,0,109.19,95.65Zm-.67,2.18A1.38,1.38,0,0,1,107,98a1.64,1.64,0,0,1-.81-1.22,1,1,0,0,1,0-.39.91.91,0,0,1,.38-.52,1.42,1.42,0,0,1,1.18-.17,1.5,1.5,0,0,1,.65.47,2.49,2.49,0,0,1,.34.85A.93.93,0,0,1,108.52,97.83Z"/><path class="cls-15" d="M113,95.31l1-.1a1.11,1.11,0,0,0-.51-.62,2.62,2.62,0,0,0-2.48-.15,1.64,1.64,0,0,0-.8,1.59,2.67,2.67,0,0,0,.78,1.59,2.09,2.09,0,0,0,1.27.56,3.75,3.75,0,0,0,.67,0,1.72,1.72,0,0,0,1.15-.52,1.24,1.24,0,0,0,.31-1.08,6.66,6.66,0,0,1-.89.17.59.59,0,0,1-.33.61,1,1,0,0,1-.79.11A1.65,1.65,0,0,1,111,96a1.09,1.09,0,0,1,1.18-1.16A1.06,1.06,0,0,1,113,95.31Z"/><path class="cls-15" d="M114.14,94.62l1.49-.22a5.16,5.16,0,0,1,.16.52c.11.39.22.79.31,1.18s.29,1,.37,1.5l.91-.16c-.07-.26-.13-.51-.2-.76l-.16-.61-.46-1.79c.5,0,1-.17,1.47-.23a3.16,3.16,0,0,0-.18-.72c-.29,0-.65.1-1,.15-.67.11-1.06.15-1.72.27l-1.2.15S114.07,94.45,114.14,94.62Z"/></g></g></g></svg>