<svg xmlns="http://www.w3.org/2000/svg" viewBox="0 0 237.7 237.32"><defs><style>.cls-1{isolation:isolate;}.cls-2{opacity:0.73;}.cls-3{opacity:0.75;}.cls-4{opacity:0.04;mix-blend-mode:multiply;}.cls-5{opacity:0.8;}.cls-6{opacity:0.1;mix-blend-mode:hue;}.cls-7{opacity:0.85;}.cls-8{opacity:0.88;}.cls-9{opacity:0.95;}.cls-10{opacity:0.83;}.cls-11{opacity:0.93;}.cls-12{opacity:0.46;}.cls-13{fill:#f7bca5;}.cls-14{fill:none;stroke:#092a49;stroke-linejoin:round;}</style></defs><title>covaya_icons</title><g class="cls-1"><g id="ICONS"><g id="PINK_BKGD" data-name="PINK BKGD"><path class="cls-13" d="M123,79.53c1.13-5,6.18-14.33,13.22-17.55,5.28-2.42,8-1.91,11.78-1.55a37,37,0,0,1,8,2.47c1.79,1.14,8,5,9.6,9.22a36.44,36.44,0,0,1,2.13,10.18c.21,3.43.52,7.64-1.09,10.65-3,5.52-9.65,8.79-15.73,9.89a97.68,97.68,0,0,1-12.61.17c-1.73-.19-6.64-2.52-10-5C122.72,93.92,121.64,85.47,123,79.53Z"/><path class="cls-13" d="M82,127.14c1.56,8.38,4.34,11.48,10.67,15.11a27.28,27.28,0,0,0,13.14,3.52c5.41,0,19,.39,26.51-10.28,2.05-2.93,2.22-7.46,2.59-10.86,1.08-10.1.05-20.47-.32-30.6A190.8,190.8,0,0,1,91,95.68c-2-.15-9.8-1.65-9.8-1.65s.08,11.85,0,13.59C80.9,113.51,80.93,121.3,82,127.14Z"/></g><g id="LINES"><path class="cls-14" d="M71.88,85.65c-.4,24.79-.25,51,.46,75.81a3.77,3.77,0,0,0,.4,1.9,4.54,4.54,0,0,0,2.36,1.53c12.62,4.78,19.9,4.09,33.61,4.78A146.9,146.9,0,0,0,133.85,168c5.63-.93,11.86-2.81,12.13-6.21a123.08,123.08,0,0,0-.11-14.08.66.66,0,0,0-1.09-.38,20.06,20.06,0,0,1-7.47,4.1c-14,3.21-26.07,5-43.75,3.17-5.21-.54-9.94-1.82-17.61-4.16"/><path class="cls-14" d="M122.37,78.55c-11.65-.63-21.41-1-34.55-.7-2.73.06-11.64.71-14.12,1.58-1.77.61-2.48,2.67-.16,3.81,3.38,1.67,13.49,3.08,18.68,3.2,13.87.32,18,.46,31.9.27,4,0,12,.53,16.34-1.32.14-.06,1.73-1.47-.22-2.31"/><path class="cls-14" d="M145.35,144c0-19.46,0-39.07-.59-57.08,0-.35,0-3-.56-3.93-1.47-2.51-5.15-3.44-11.51-3.81l-4.88-.28"/><path class="cls-14" d="M122.56,103.27c.73-.13,1.65-.18,2,.4a1.88,1.88,0,0,1,.23,1c.2,2.71,2.12,5,3.67,7.29a33.11,33.11,0,0,1,5.12,12.22,1.5,1.5,0,0,1-1.11,1.67c-5.07,1.55-10,3.47-14.9,5.38l-7,2.75a1.1,1.1,0,0,1-1.44-.6l-4-11.25c-.68-1.88-1.26-4.71-2.57-6.28-4.07-4.88-3.28-4.39,4.59-7.78A65.64,65.64,0,0,1,122.56,103.27Z"/><path class="cls-14" d="M108.82,105.53c3.9-6.36,6.38-13.37,8.75-20.36a1.56,1.56,0,0,0-.68-1.81,65.93,65.93,0,0,0-22-8.5,3.05,3.05,0,0,0-1.47,0,2.81,2.81,0,0,0-1.56,1.87l-6,14.74a13,13,0,0,1-2.29,3.38c-4,4.18,4.24,5,8.25,6.91,4.75,2.22,9.71,4.91,15.17,4.75A2.1,2.1,0,0,0,108.82,105.53Z"/><path class="cls-14" d="M93.11,120.69c.55-.54.35-1.4.12-2.12a1.65,1.65,0,0,0-.55-.92,1.48,1.48,0,0,0-.65-.22A3.2,3.2,0,0,0,88.85,119a2.74,2.74,0,0,0,.66,3.28C90.77,122.81,92.2,121.6,93.11,120.69Z"/><path class="cls-14" d="M100.39,128.3a2.16,2.16,0,0,1-1,2.41,2.41,2.41,0,0,1-2.8-.32,1.8,1.8,0,0,1,0-2.55,2.53,2.53,0,0,1,2.3-.46C99.25,127.47,100.29,128,100.39,128.3Z"/><path class="cls-14" d="M122.48,97.45a4.72,4.72,0,0,0-2.09-1.37,1.07,1.07,0,0,0-1.21.53c-.5.81-1,1.77-.64,2.63a2,2,0,0,0,2.6.8C121.59,100.16,123,98.3,122.48,97.45Z"/><path class="cls-14" d="M121.85,87.16c-1-9.14,3.49-20.67,12.08-25.28a16,16,0,0,1,4.59-1.71A17.83,17.83,0,0,1,142.9,60c5.09.34,10.31,1.28,14.65,3.76,1.84,1,4.5,3.91,5.51,4.57,2.66,1.72,3.52,5,4,7.93a73.84,73.84,0,0,1,.91,9.27A12,12,0,0,1,166,92.89a31.12,31.12,0,0,1-5.58,5.66,11.27,11.27,0,0,1-1.85,1.24c-6,3.4-10.56,2.18-13.28,2.35"/><path class="cls-14" d="M127.12,87.21c-.77-7.52,2.93-17.17,10.06-20.86a15.52,15.52,0,0,1,6.66-1.87A23.52,23.52,0,0,1,152.73,66a28.22,28.22,0,0,1,6.52,5c3.68,3.86,3.51,9.62,3.22,14.76a9.74,9.74,0,0,1-.51,3.07,9,9,0,0,1-1.64,2.42,21,21,0,0,1-6.39,5.25c-2.53,1.26-5.05,1.2-9,1.37"/><path class="cls-14" d="M147,83.17q3.87,6.35,7.38,12.86"/><path class="cls-14" d="M136.26,66.88c3.66,5.17,5.63,7.78,8.92,13.16"/><path class="cls-14" d="M147.75,80.51a11.08,11.08,0,0,0,4.17-1.93,73.93,73.93,0,0,1,8.76-5.11"/><path class="cls-14" d="M149.54,65c.7,5.31-2.08,9.51-2.9,14.8"/><path class="cls-14" d="M162.5,85.24a36.09,36.09,0,0,1-5.29-1.15c-.86-.29-1.72-.62-2.6-.87s-1.74-.4-2.62-.56c-1.41-.25-2.36-.25-3.77-.5"/><path class="cls-14" d="M145.18,80c1.34-.63,3.15.33,3.13,1.73a.75.75,0,0,1-.09.39.91.91,0,0,1-.21.23,4.09,4.09,0,0,1-1.77,1.09,2.25,2.25,0,0,1-1.57-.22c-1.25-.7-.65-2.68.51-3.22"/><path class="cls-14" d="M140.24,83.08c-1.71.46-3.81,1-5.46,1.64-.75.27-5.34,2.27-6.11,2.49"/></g></g></g></svg>