<svg xmlns="http://www.w3.org/2000/svg" viewBox="0 0 237.7 237.32"><defs><style>.cls-1{isolation:isolate;}.cls-2{opacity:0.73;}.cls-3{opacity:0.75;}.cls-4{opacity:0.04;mix-blend-mode:multiply;}.cls-5{opacity:0.8;}.cls-6{opacity:0.1;mix-blend-mode:hue;}.cls-7{opacity:0.85;}.cls-8{opacity:0.88;}.cls-9{opacity:0.95;}.cls-10{opacity:0.83;}.cls-11{opacity:0.93;}.cls-12{opacity:0.46;}.cls-13{fill:#f7bca5;}.cls-14{fill:none;stroke:#092a49;stroke-linejoin:round;}</style></defs><title>covaya_icons</title><g class="cls-1"><g id="ICONS"><g id="PINK_BKGD" data-name="PINK BKGD"><path class="cls-13" d="M137.67,150.25c-5.86,6.2-8.41,14.19-6.46,18a9.61,9.61,0,0,0,9.84,5c3.5-.62,6.63-3.34,10.14-2.81,2.24.34,4,1.94,6.14,2.77a9.26,9.26,0,0,0,8.34-.87,9,9,0,0,0,4-7.27c0-3.38-1.88-6.45-3.72-9.32-2.55-3.95-5.21-8-9.13-10.67C148.71,139.58,143.65,143.94,137.67,150.25Z"/><path class="cls-13" d="M135.75,124.49c-.25,5.25,2.51,8.4,4.86,9a4,4,0,0,0,2.83-.17,4.74,4.74,0,0,0,1.62-1.62c2-2.86,3.13-6.57,2.27-10-.67-2.66-4-6.7-7.06-5.89S135.92,120.9,135.75,124.49Z"/><path class="cls-13" d="M153.19,126.43c-.27,3.38,2.14,6.88,4.44,6.8,4.85-.15,6.45-2.92,6.88-3.94,2.12-5-.23-9.84-2-11C157.69,115.11,153.7,120.12,153.19,126.43Z"/><path class="cls-13" d="M172,130a13,13,0,0,0-3.91,8,5.25,5.25,0,0,0,1.37,4.22c2,1.85,5.17.94,7.13-.92,3.18-3,4.11-8.84,1.16-12.09a2.51,2.51,0,0,0-2.55-.95A8.49,8.49,0,0,0,172,130Z"/><path class="cls-13" d="M131.6,131.3c1.6,3.12,1.44,6.49.1,7.92a5.79,5.79,0,0,1-4.32,2.2c-2.44-.12-5.65-4-6.07-8.06-.23-2.19.81-6.54,3.65-6.59C127.15,126.73,130.58,129.3,131.6,131.3Z"/><path class="cls-13" d="M102.51,95.41c5.39,6.67,7.27,14.84,5,18.44A9.79,9.79,0,0,1,97.12,118c-3.47-.9-6.39-3.88-10-3.64-2.29.15-4.24,1.6-6.44,2.25a9.47,9.47,0,0,1-8.33-1.56A8.92,8.92,0,0,1,69,107.51c.27-3.38,2.46-6.28,4.56-9,2.91-3.73,5.94-7.56,10.13-9.88C92.31,83.86,97,88.63,102.51,95.41Z"/><path class="cls-13" d="M105.54,71c-.2,5.25-3.25,8.16-5.68,8.52A4.16,4.16,0,0,1,97,79.11a5,5,0,0,1-1.49-1.75c-1.75-3-2.59-6.82-1.43-10.15.9-2.6,4.64-6.34,7.64-5.28S105.68,67.39,105.54,71Z"/><path class="cls-13" d="M87.78,71.46c0,3.39-2.75,6.68-5.07,6.42-4.87-.56-6.25-3.46-6.6-4.5-1.7-5.19,1.08-9.79,3-10.81C84.22,59.82,87.81,65.14,87.78,71.46Z"/><path class="cls-13" d="M68.54,73.51a12.86,12.86,0,0,1,3.27,8.26,5.26,5.26,0,0,1-1.76,4.1c-2.13,1.67-5.29.49-7.11-1.52-2.95-3.27-3.38-9.15-.13-12.14a2.58,2.58,0,0,1,2.66-.74A8.39,8.39,0,0,1,68.54,73.51Z"/><path class="cls-13" d="M109.28,78.3c-1.88,3-2,6.34-.78,7.88a5.84,5.84,0,0,0,4.17,2.55c2.47.08,6-3.54,6.82-7.52.42-2.17-.26-6.59-3.12-6.88C114.17,74.11,110.48,76.39,109.28,78.3Z"/></g><g id="LINES"><path class="cls-14" d="M134.85,146.63c-6.25,7-9,15.9-6.91,20.11,1.9,3.88,6.31,6.38,10.45,5.59,3.72-.7,7.05-3.76,10.79-3.17,2.37.37,4.28,2.17,6.52,3.08a9.41,9.41,0,0,0,8.86-1,10.21,10.21,0,0,0,4.24-8.14c0-3.79-2-7.22-3.93-10.42-2.7-4.42-5.51-9-9.67-11.92C146.61,134.66,141.23,139.55,134.85,146.63Z"/><path class="cls-14" d="M101.22,93.4c5.71,7.44,7.7,16.58,5.25,20.61a10.25,10.25,0,0,1-11,4.71c-3.69-1-6.79-4.34-10.61-4.06-2.42.17-4.51,1.8-6.84,2.53a9.64,9.64,0,0,1-8.86-1.73A10.14,10.14,0,0,1,65.56,107c.29-3.78,2.62-7,4.87-10.06,3.1-4.18,6.33-8.47,10.78-11.07C90.4,80.49,95.41,85.82,101.22,93.4Z"/><path class="cls-14" d="M157.79,168.16c4.73-1.41,6.55-3.54,7.38-6.21"/><path class="cls-14" d="M96.38,114.85c4.34-1.41,6-3.54,6.76-6.22"/><path class="cls-14" d="M72.26,100.34c1.77-2.45,5.62-6.9,7.87-8.42"/><path class="cls-14" d="M134.15,122c-.27,5.59,2.58,8.94,5,9.53a4.16,4.16,0,0,0,2.93-.18,5.16,5.16,0,0,0,1.68-1.73c2.05-3,3.24-7,2.36-10.63-.69-2.83-4.16-7.11-7.31-6.25S134.33,118.22,134.15,122Z"/><path class="cls-14" d="M151.44,124.06c-.29,3.6,2.21,7.32,4.59,7.23,5-.17,6.69-3.12,7.13-4.19,2.2-5.36-.22-10.48-2-11.71C156.11,112,152,117.36,151.44,124.06Z"/><path class="cls-14" d="M170.88,127.94a14.09,14.09,0,0,0-4.07,8.48,5.7,5.7,0,0,0,1.43,4.49c2,2,5.34,1,7.37-1,3.31-3.22,4.27-9.41,1.23-12.86a2.57,2.57,0,0,0-2.65-1A8.59,8.59,0,0,0,170.88,127.94Z"/><path class="cls-14" d="M129.82,129.33c1.65,3.31,1.48,6.89.1,8.42a6,6,0,0,1-4.49,2.34c-2.51-.12-5.83-4.27-6.27-8.56-.24-2.33.86-7,3.8-7C125.22,124.47,128.77,127.2,129.82,129.33Z"/><path class="cls-14" d="M104.06,69c-.22,5.59-3.38,8.69-5.89,9.07a4.27,4.27,0,0,1-2.94-.42,5,5,0,0,1-1.54-1.86C91.88,72.55,91,68.51,92.22,65c.94-2.76,4.81-6.74,7.91-5.62S104.21,65.14,104.06,69Z"/><path class="cls-14" d="M86.44,69.53c0,3.61-2.86,7.11-5.25,6.83-5-.59-6.48-3.67-6.83-4.78-1.76-5.51,1.13-10.41,3.08-11.49C82.77,57.15,86.48,62.81,86.44,69.53Z"/><path class="cls-14" d="M68.05,84.93c-2.21,1.78-5.48.53-7.36-1.61-3-3.48-3.5-9.72-.13-12.91a2.65,2.65,0,0,1,2.76-.79"/><path class="cls-14" d="M63.32,69.62a8.86,8.86,0,0,1,3.18,2.16,14,14,0,0,1,3.37,8.79,5.7,5.7,0,0,1-1.82,4.36"/><path class="cls-14" d="M107.79,76.57c-2,3.17-2.09,6.75-.82,8.39a6,6,0,0,0,4.32,2.7c2.55.1,6.26-3.77,7.07-8,.44-2.3-.26-7-3.23-7.31C112.86,72.12,109,74.55,107.79,76.57Z"/></g></g></g></svg>