<svg xmlns="http://www.w3.org/2000/svg" viewBox="0 0 237.7 237.32"><defs><style>.cls-1{isolation:isolate;}.cls-2{opacity:0.73;}.cls-3{opacity:0.75;}.cls-4{opacity:0.04;mix-blend-mode:multiply;}.cls-5{opacity:0.8;}.cls-6{opacity:0.1;mix-blend-mode:hue;}.cls-7{opacity:0.85;}.cls-8{opacity:0.88;}.cls-9{opacity:0.95;}.cls-10{opacity:0.83;}.cls-11{opacity:0.93;}.cls-12{opacity:0.46;}.cls-13{fill:#f7bca5;}.cls-14,.cls-15{fill:none;}.cls-15{stroke:#092a49;stroke-linejoin:round;}</style></defs><title>covaya_icons</title><g class="cls-1"><g id="ICONS"><g id="PINK_BKGD" data-name="PINK BKGD"><path class="cls-13" d="M82.59,66.65c-1.78,2.13-2.16,4.15-1.54,7.57.57,3.17,5.1,9.44,10.21,11.58,3.13,1.32,8.91,3.5,11.8,2.14a7,7,0,0,0,2.5-2.46c3.32-4.67-4.65-16-5.94-17.4C94.46,62.44,85.08,63.68,82.59,66.65Z"/><path class="cls-13" d="M73.5,120.37c4.43,3.14,10.49,5.41,15.73,4.39,4.64-.91,8-4.13,3.73-12.76a20.92,20.92,0,0,0-3.76-4.34c-1.82-1.54-5.51-4.37-7.56-4.67-.58.66-.11.51.49,1.18s3.74,3.47,4.82,5.51a.36.36,0,0,1-.5.47A31.17,31.17,0,0,1,81.56,107c-1.43-1.63-3.52-2.57-5.74-3.55a.42.42,0,0,0-.54.57c1.46,3,6.59,5.34,8.56,8.45.2.32-.48,1.53-1.67.84-1.58-.92-1.79-1.51-4.22-3-.5-.3-7.82-4.22-5.72-.76a7.44,7.44,0,0,0,3.12,2.57c7.89,3.12,7.74,5,6.66,7.19-.81,1.32-5.69-.6-6.59-1.16s-5.89-4.27-6.56-3.5C68,115.6,72.74,119.82,73.5,120.37Z"/></g><g id="LINES"><path class="cls-14" d="M14.15,143a2.94,2.94,0,0,0,1.08,1.91,2,2,0,0,0,.52.39,2.05,2.05,0,0,0,1.1.1,4.47,4.47,0,0,0,2.2-.73,2.21,2.21,0,0,0,1-2,2.49,2.49,0,0,0-.71-1.32,3.53,3.53,0,0,0-2.59-1.28,3.42,3.42,0,0,0-2.48,2A6.35,6.35,0,0,0,14.15,143Z"/><path class="cls-14" d="M14.62,142.42c.17.44.83.61,1.19.9a6.71,6.71,0,0,1,1.33,1.48.81.81,0,0,1,.38-.07,1.3,1.3,0,0,1,.54-.55l1.83-1.28a2.15,2.15,0,0,0-1.9-.13c.26-.52.5-.74.76-1.25.08-.15.18-.31.34-.32a2,2,0,0,0-2,1.42,1.24,1.24,0,0,0-.67-.78,3.28,3.28,0,0,0-1-.27,2.68,2.68,0,0,1,.51,1C15.47,142.62,14.65,142.37,14.62,142.42Z"/><path class="cls-14" d="M17.43,149.11a35.55,35.55,0,0,0,.09-4.84,1,1,0,0,0-.43,0,4.76,4.76,0,0,1,0,1.88l-.39,3.09A.53.53,0,0,1,17.43,149.11Z"/><path class="cls-15" d="M108.47,128.08A421.41,421.41,0,0,1,164.59,163a31,31,0,0,1,6.93,6.32c-1.29,2.85-5.71,1.74-8.35.14L116,141a11.53,11.53,0,0,1-3.18-2.46c-1.16-1.45-1.54-3.4-2.82-4.75a10.34,10.34,0,0,0-3.91-2.21c-3.84-1.47-9.25-4.89-13.44-5s-5,.78-9.13,0c-2.89-.51-6.41-2.82-8.9-4.22-4.83-2.7-9-4.38-11.42-9.22,6.18.61,11.54,4.73,18.14,5.45.47-3.56-4.5-5-7.94-6.22s-7.54-3.08-7.62-6.63c5.36.82,11.89,5.08,17.06,6.84-2.17-5.31-13.28-6.82-13.72-12.89,6.29,1.8,11,6.31,17,9.32-.87-3.16-4.22-4.82-6.54-7.31-.4-.43-.82-1.08-.42-1.55s15.7,7.11,17.18,15.06C97.69,122.58,101.47,124.45,108.47,128.08Z"/><path class="cls-15" d="M88,66.17a9.4,9.4,0,0,1,8.93,1.64,14.65,14.65,0,0,1,4.66,7.63c.71,2.53,1.12,5.36,3.15,7.11a13,13,0,0,0,3.75,2.39c5.42,2.6,5.06,4.15,10.1,9.21,4,4,10,10.67,12.65,13.7,1.87,2.19,28,25.72,38.7,35.71,2.36,2.19,4.84,4.65,5.16,7.8-1.81.84-3.8-.44-5.28-1.65-11.91-9.71-46.08-42.07-48.47-44.13-5.51-4.74-8.6-11.88-15.63-14.37-3.25-1.16-8.17-.53-11.46-1.62C83.67,86.1,76.8,78.64,76.81,68c0-1,1.19-6.51,8-8.29,7.16-1.85,12.31,1,16.72,6.39s6,11.34,7.45,18.11"/></g></g></g></svg>