<svg xmlns="http://www.w3.org/2000/svg" viewBox="0 0 237.7 237.32"><defs><style>.cls-1{isolation:isolate;}.cls-2{opacity:0.73;}.cls-3{opacity:0.75;}.cls-4{opacity:0.04;mix-blend-mode:multiply;}.cls-5{opacity:0.8;}.cls-6{opacity:0.1;mix-blend-mode:hue;}.cls-7{opacity:0.85;}.cls-8{opacity:0.88;}.cls-9{opacity:0.95;}.cls-10{opacity:0.83;}.cls-11{opacity:0.93;}.cls-12{opacity:0.46;}.cls-13{fill:#f7bca5;}.cls-14{fill:none;stroke:#092a49;stroke-linejoin:round;}</style></defs><title>covaya_icons</title><g class="cls-1"><g id="ICONS"><g id="PINK_BKGD" data-name="PINK BKGD"><path class="cls-13" d="M73.3,144.05c1.21,3.16,3.73,6.72,6.94,8.3a34.25,34.25,0,0,0,10.4,2.86,27.45,27.45,0,0,0,10.89-.22c6.17-1.11,9.13-4.8,9.88-6.13,2.85-5,4.82-14.87,1.7-18.15-1.8-1.91-6.58-2.11-8.43-2.18a214.69,214.69,0,0,0-25,.36,9.79,9.79,0,0,0-6.8,3.33C70.83,134.43,72.32,141.52,73.3,144.05Z"/><path class="cls-13" d="M131.37,139.89c-1.12,5.12.09,8,3.7,10.1,1.37.81,4.58,2.54,6.21,2.69a21.93,21.93,0,0,0,10.85-1.34c7.67-2.89,14.61-16.22,15.11-23.32a3.68,3.68,0,0,0-.16-1.74,4.25,4.25,0,0,0-3-2.37c-6.8-1.4-18.43-.47-24.37.8C132.19,126.31,132.74,133.66,131.37,139.89Z"/></g><g id="LINES"><path class="cls-14" d="M102.14,90.33c-6.42-2.93-12.55-7.19-19.4-5.48-2.15.54-4.18,1.68-6.4,1.67-3.62,0-6.43-3-8.76-5.78l11.31.05c7.84,0,11.48.69,18.64,3.91,2.19,1,4.93,2.15,8,3.39"/><path class="cls-14" d="M106.83,124.48c-1.34-2.25-4.22-1.3-6.3-1.34-12.24.34-19.84,1.54-32.08,1.89-4.79.13-9.57,1.17-14.31,1.83-1.61.23-1.87,2.71-1.3,3.82a1.6,1.6,0,0,0,.86.84c4.65,1.65,10.13,1.35,12.84,5.21,2,2.87.82,6.86,1.62,10.28a12.27,12.27,0,0,0,4.62,6.57c5.44,4.23,12.69,5.26,19.58,5.53,4.5.18,9.25,0,13.13-2.25,5-3,7.51-8.85,9.24-14.43.32-1,1-7.78-.27-10a23.69,23.69,0,0,0-3.75-4.44,1.43,1.43,0,0,1-.36-1.72c.51-1,2.36-.78,3.69-.76,2.73,0,7.59,0,9.68,0a1.08,1.08,0,0,1,1,.94,3.55,3.55,0,0,0,2.18,2.94l.74.17c1.78.38,1.12,2,.62,3.73a89.86,89.86,0,0,0-2.25,12.17,8.92,8.92,0,0,0,1.84,5.62,14.55,14.55,0,0,0,7.44,5,23.66,23.66,0,0,0,6.36,1c4.36-.16,11.56-2.59,14.5-5.74a51.17,51.17,0,0,0,6-7.57,46.93,46.93,0,0,0,4.89-12.06,13.71,13.71,0,0,1,3.1-6.12c3.42-3.76,8.87-5,8.87-5a34.08,34.08,0,0,0,10.84-5.86,1.5,1.5,0,0,0,.52-1.83c-1.44-2.89-5.09-.58-7.61.09-16.76,4.48-28.71,3.48-46.51,5.44-3.53.39-7.22.35-8.76,2.77"/><path class="cls-14" d="M56.62,126.49c5.91-5.27,13.26-10.34,17.68-14.58,11.16-10.7,24.19-19.21,37.14-27.65L128.75,73c1.61-1.06,3.36-2.15,5.29-2.1a8,8,0,0,1,3.86,1.4,22.48,22.48,0,0,1,6.37,5.92c-1.64.84-3.41-.74-5.16-1.3-2.92-.93-5.86,1.07-8.37,2.82-4.55,3.16-14.56,7.61-19.7,9.69-4.45,1.81-18.64,11.71-23.23,15.82C81.33,111,74.4,118.69,68.45,125"/><path class="cls-14" d="M110.34,89.74c4.53,1.68,10.74,4.05,15.62,5.45,10.11,2.9,22,6.87,32.61,10.17,6.1,1.9,22.13,5.59,27.27,6.62"/><path class="cls-14" d="M175.69,114.68c-10.06-3.08-25.22-8.86-47.57-15.64-6.15-1.87-16.17-4.74-22.19-7"/><path class="cls-14" d="M72,147.54a47.81,47.81,0,0,1-1.7-7.45c-.27-1.84-.4-3.85.59-5.42a6.9,6.9,0,0,1,3.06-2.39c3.16-1.47,7.23-1.64,10.7-1.91a124.52,124.52,0,0,1,19.6-.1c12.78.67,6.4,17.27,1.73,22.49-3.61,4-11.08,4.34-14.28,4.34C80.68,157.11,73.06,151,72,147.54Z"/><path class="cls-14" d="M130.08,139.52a58.16,58.16,0,0,1,2.29-7.92,6.91,6.91,0,0,1,.95-2,5.66,5.66,0,0,1,1.39-1.19c5.77-3.8,16.46-4.2,23.36-3.82a7.53,7.53,0,0,1,4.06,1,5.12,5.12,0,0,1,1.69,2.55c1.31,4.08-.88,8.37-3.07,12a41,41,0,0,1-6.72,9.11c-2.75,2.59-8.67,5.2-12.45,5.14-2.74,0-9.94-1.74-11.55-4.22S129.58,142.13,130.08,139.52Z"/></g></g></g></svg>