<svg xmlns="http://www.w3.org/2000/svg" viewBox="0 0 237.7 237.32"><defs><style>.cls-1{isolation:isolate;}.cls-2{opacity:0.73;}.cls-3{opacity:0.75;}.cls-4{opacity:0.04;mix-blend-mode:multiply;}.cls-5{opacity:0.8;}.cls-6{opacity:0.1;mix-blend-mode:hue;}.cls-7{opacity:0.85;}.cls-8{opacity:0.88;}.cls-9{opacity:0.95;}.cls-10{opacity:0.83;}.cls-11{opacity:0.93;}.cls-12{opacity:0.46;}.cls-13{fill:#f7bca5;}.cls-14{fill:none;stroke:#092a49;stroke-linejoin:round;}.cls-15{fill:#092a49;}</style></defs><title>covaya_icons</title><g class="cls-1"><g id="ICONS"><g id="PINK_BKGD" data-name="PINK BKGD"><path class="cls-13" d="M97.54,154.13c1.07,1.76,2.41,3.58,4.44,4.19a6.52,6.52,0,0,0,2.24.55l8.94,0,28.73-.09,22-.07,15.13-.05a12.56,12.56,0,0,0,2.6-.2c3-.68,4.94-3.53,6.26-6.24a49.33,49.33,0,0,0,5-20,4.38,4.38,0,0,0-.37-2.3,4.08,4.08,0,0,0-1.52-1.39,13,13,0,0,0-6.48-1.83,19.26,19.26,0,0,0-.87-5.65,7,7,0,0,0-3.77-4.24,11.16,11.16,0,0,0-4.39-.5c-22.53.37-44.62,0-67.13-1.06.53,1.64.8,1.61.49,3.63a42.21,42.21,0,0,0-8.63-.37,27.35,27.35,0,0,0-.36,6.17c-.61.16-3.13.09-3.74.24,2,8.93,1.21,14.43.73,20.74,0,.25-3.46-1.62-3.76-1.77C93.53,147,96.52,152.44,97.54,154.13Z"/><path class="cls-13" d="M157.84,87.41l0-26.57H121.93c.32,0,.2,9.52.29,17.45,0,2.55-.67,9.29,0,9.26,2.66-.14,14.24.1,17.41,0C145.43,87.36,152,87.6,157.84,87.41Z"/></g><g id="LINES"><path class="cls-14" d="M55.73,142.79a24.25,24.25,0,0,1-1.39,8.73,17.39,17.39,0,0,1-3.17,5.94,13.75,13.75,0,0,0-3,4.77c-.58,1.34-1.89,2.64-3.31,2.31-1.64-2.42-2.36-5.33-3-8.17a8.25,8.25,0,0,1-.34-3,17,17,0,0,0,.66-3.08c0-1-.59-1.84-.73-2.79a6.28,6.28,0,0,1,.66-3.25A40,40,0,0,1,46,137a2.93,2.93,0,0,1,1.6-1.37c1.42-.31,2.36,1.41,2.79,2.79.7-.39,1.23-1,1.9-1.47a1.9,1.9,0,0,1,2.24-.09,2.32,2.32,0,0,1,.57,1.2c0,.1,0,.21.08.31A23.87,23.87,0,0,1,55.73,142.79Z"/><path class="cls-14" d="M60.32,109.36a1,1,0,0,0-.13-.63,1,1,0,0,0-.63-.31c-2.55-.58-5.29-1.15-7.71-.18a12.46,12.46,0,0,1-3.13,1.24,9.74,9.74,0,0,0-1.88.14,3.46,3.46,0,0,0-1.5,1.18,20.76,20.76,0,0,0-4,18.66,1,1,0,0,0,1.47.68,35.79,35.79,0,0,0,23.06-18c.14-.25-4.68,1-4.66,1C59.75,112.93,60.32,110.8,60.32,109.36Z"/><path class="cls-14" d="M46.8,81.75c-.2,1.89-.38,3.91.54,5.6a10.11,10.11,0,0,0,2.12,2.42,95.65,95.65,0,0,0,10.67,8.14c2.27,1.6,3.55,4.28,5.21,4.82,2.47,0,3.08,0,4.15-.07a28.66,28.66,0,0,0,8.33-1.37c-.73-5-4.67-9-8.49-12.49-2.48-2.26-5.09-4.54-8.33-5.6a24.92,24.92,0,0,0-4.12-.86C53.66,81.85,50,82.23,46.8,81.75Z"/><path class="cls-14" d="M88.07,115.54a34.44,34.44,0,0,1-4.35-1.4c-3.09-1.3-7.64-5-5.9-7.87.52-.85,6.46,1.16,8.94,2a.22.22,0,0,0,.21-.38c-2.34-1.86-6.55-4.87-5.14-6.65a7.87,7.87,0,0,1,5.53-3.29A34.53,34.53,0,0,1,95.82,99a22.08,22.08,0,0,1,4.62,1.78,15.88,15.88,0,0,1,6.44,7.83,47.44,47.44,0,0,1,2.53,10,93.85,93.85,0,0,0-10.47-.36,12.75,12.75,0,0,1-3.09-.17,10.84,10.84,0,0,1-1.66-.57"/><path class="cls-14" d="M83.12,119.7c-1.16.77.45,13.27,4,18.65a19.76,19.76,0,0,0,9.67,7.56,56.36,56.36,0,0,0-2-26.58A12,12,0,0,0,93,115.45a4.74,4.74,0,0,0-3.68-1.93c-1.14,0-1.84,4.85-2.18,5.58C86.14,121.24,85.1,119.73,83.12,119.7Z"/><path class="cls-14" d="M87,149.43a.59.59,0,0,1,.68.52c.64,7.45-.7,14.86-2.9,22-.55,1.78-1.34,3.81-3.17,4.39a6.33,6.33,0,0,1-1.63.2l-7.62.26c-2.72.09-5.77.06-7.72-1.78a9.33,9.33,0,0,1-2.25-4.94,95.59,95.59,0,0,1-1.64-9.93c-.29-2.59-.46-6.63-.46-9.6,0-2.34,4.43-1,6.23-.86,3.49.29,7,.41,10.5.36C77.82,150.08,84.84,149.71,87,149.43Z"/><path class="cls-14" d="M99.52,118.26a24.54,24.54,0,0,0-.87,6.28c-.77.06-1.55.12-2.33.23"/><path class="cls-14" d="M91.25,142.78a94.1,94.1,0,0,0,5.6,13.69,8.5,8.5,0,0,0,2.67,2.89c1,.57,4.06.83,5.22.8l10.67-.3c4.82-.13,14.43,0,19.26.25,7.06.3,16,.5,19.63.39,10.58-.31,16.37.24,26.95-.07a14,14,0,0,0,4-.5c3.55-1.18,5.53-4.88,6.93-8.34a86.28,86.28,0,0,0,4.39-14.22c.7-3.18,1.09-6.88-1-9.34-1.83-2.12-4.89-2.57-7.67-2.87a22.7,22.7,0,0,0-2.06-8.73,5,5,0,0,0-1.2-1.79,4.86,4.86,0,0,0-2.15-.91c-7.1-1.56-14.45.84-21.71.32-2.17-.15-20.06,0-26.87-.16-7.56-.19-17.92-1.78-25.68-1.28"/><path class="cls-14" d="M105.34,162c-.33,4.8-2,16.13-.75,17.73.73.91,1.57.35,2.1-.48s.9-5.47,1.33-8.62c.32-2.27.87-6.45,1.09-8.75"/><path class="cls-14" d="M115.41,161.67c-.24,3.06-1,6.29-1.28,9.18-.11,1-.26,1.92.65,2.26a1.07,1.07,0,0,0,1.4-.54,14.56,14.56,0,0,0,.93-3.66c.71-3,.71-4,1.3-7.29"/><path class="cls-14" d="M169.2,162.34c.48,2.93.91,6.57,1.63,9.24a2.15,2.15,0,0,0,.51.95,1.42,1.42,0,0,0,1.27.27c.27-.11.43-.36.42-1-.06-2-.81-6.72-1.2-9.56"/><path class="cls-14" d="M176.8,162.32c.42,2.36,1.19,5.55,1.64,7.69.83,3.87,1.79,8.69,3,10.77.37.66,1.77.36,1.94-.37s-.37-4.16-.8-7.06c-.71-4.79-.83-6-1.92-11.08"/><path class="cls-14" d="M142.78,114c.66,12.64.87,24.59.59,37.24"/><path class="cls-14" d="M98.65,124.54a9.6,9.6,0,0,1,6,1.61,10.45,10.45,0,0,1,2.71,2.46,9.15,9.15,0,0,1,1,2.23,43.17,43.17,0,0,1,1.92,8.55"/><path class="cls-14" d="M176.39,140.51c.25-1.84,4.06-8.91,5.52-11.2a12.64,12.64,0,0,1,1.7-2.28,6,6,0,0,1,4.24-1.87"/><path class="cls-14" d="M143.37,151.22A2.07,2.07,0,0,1,142,152.8a57.31,57.31,0,0,1-8.79.5c-4.83,0-9.62-.59-14.45-.7a58.93,58.93,0,0,1-7-.55,10.28,10.28,0,0,1-6.23-3,4.74,4.74,0,0,1-1.3-2.61,6,6,0,0,1,1.61-4.17,7,7,0,0,1,4.5-2.93,38.59,38.59,0,0,1,9.3-.84c7.11-.06,14.43-.09,21,2.53,1.15.46,2.42,1.16,2.66,2.38.1,2.19-4.75,3.57-9.5,4.06-2.15.22-4.84.29-7,.35-1.63,0-3.27,0-4.9-.11-5.92-.3-12-.67-17.48-2.84"/><path class="cls-14" d="M182.56,146.26c-6.61.62-15.89.94-22.61,1.17a61.94,61.94,0,0,1-12-.39c-1.45-.24-4.12-1.27-4.43-2.71-.25-1.18,1.25-2.45,2.33-3,2.12-1.1,6.66-1.63,8.3-1.64l12.65-.11c3.53,0,7.15,0,10.45,1.23s5.36,3.58,5.61,7.1a2.81,2.81,0,0,1-.62,2.21,3,3,0,0,1-1.06.61c-6.52,2.69-13,2.83-20,2.65-5.62-.15-15.68-.07-16.88-.71a2.27,2.27,0,0,1-.88-1.44"/><path class="cls-15" d="M151,130.36a.83.83,0,0,0,.49.56,2.06,2.06,0,0,0,.74.13.87.87,0,0,0,.77-.23,1.13,1.13,0,0,0,0-1,1.58,1.58,0,0,0-.65-.46C151.66,129,150.74,129.34,151,130.36Z"/><path class="cls-15" d="M152.87,122.22a4.66,4.66,0,0,1-1.5.13c-.53,0-.44-.94-.42-1,.14-.45.72-.53,1.07-.6S153.5,121.5,152.87,122.22Z"/><path class="cls-15" d="M160.09,122.4a.88.88,0,0,0,.76-.05.91.91,0,0,0,.3-.94.8.8,0,0,0-.34-.43c-.49-.35-1.34-.64-1.7.08C158.63,122,159.62,122.28,160.09,122.4Z"/><path class="cls-15" d="M160.12,131.07a1,1,0,0,0,.83.23,1.19,1.19,0,0,0,1-1.05.87.87,0,0,0-.06-.43.61.61,0,0,0-.59-.29C160.75,129.51,159,130,160.12,131.07Z"/><path class="cls-15" d="M169,120.56a1.12,1.12,0,0,0-.32,0,.74.74,0,0,0-.51.74,1,1,0,0,0,.51.78,1.52,1.52,0,0,0,.94.16.93.93,0,0,0,.53-.22,1.16,1.16,0,0,0,.13-1.25C170,120.42,169.39,120.55,169,120.56Z"/><path class="cls-15" d="M169.6,131.22a.87.87,0,0,0,.69-.32.92.92,0,0,0-.06-1,.84.84,0,0,0-.47-.28c-.59-.14-1.49-.1-1.56.7C168.1,131.4,169.12,131.28,169.6,131.22Z"/><path class="cls-15" d="M175.6,130.2a.84.84,0,0,0,.72.2,1,1,0,0,0,.88-.92.78.78,0,0,0,0-.37.56.56,0,0,0-.52-.25C176.15,128.84,174.64,129.31,175.6,130.2Z"/><path class="cls-15" d="M176.17,121.82a.71.71,0,0,0,.47.45,2.05,2.05,0,0,0,.7.11.93.93,0,0,0,.74-.18.82.82,0,0,0-.05-.85,1.47,1.47,0,0,0-.61-.38C176.82,120.73,176,121,176.17,121.82Z"/><path class="cls-15" d="M134.82,130.13a.86.86,0,0,0-.49-.56,2.06,2.06,0,0,0-.74-.13.9.9,0,0,0-.78.23,1.17,1.17,0,0,0,.05,1,1.58,1.58,0,0,0,.65.46C134.13,131.45,135.05,131.15,134.82,130.13Z"/><path class="cls-15" d="M133.13,121a5,5,0,0,1,1.5-.13c.53,0,.45.94.43,1-.14.46-.73.54-1.07.6C133.5,122.63,132.5,121.77,133.13,121Z"/><path class="cls-15" d="M126.21,120.36a.88.88,0,0,0-.76,0,.92.92,0,0,0-.3.95.79.79,0,0,0,.34.43c.49.34,1.34.64,1.7-.09C127.67,120.73,126.68,120.48,126.21,120.36Z"/><path class="cls-15" d="M126.22,129.07a1,1,0,0,0-.83-.24,1.2,1.2,0,0,0-1,1.06.77.77,0,0,0,.06.43.62.62,0,0,0,.59.29C125.59,130.63,127.32,130.09,126.22,129.07Z"/><path class="cls-15" d="M117.89,122.07a1.23,1.23,0,0,0,.33,0,.74.74,0,0,0,.5-.75,1,1,0,0,0-.51-.77,1.46,1.46,0,0,0-.94-.16.87.87,0,0,0-.53.22,1.18,1.18,0,0,0-.13,1.25C116.89,122.2,117.49,122.07,117.89,122.07Z"/><path class="cls-15" d="M117.54,128.63a.94.94,0,0,0-.69.32.92.92,0,0,0,.07,1,.81.81,0,0,0,.47.28c.59.14,1.48.1,1.56-.7C119,128.45,118,128.57,117.54,128.63Z"/><path class="cls-15" d="M111.25,128.37a.88.88,0,0,0-.72-.2,1,1,0,0,0-.88.92.76.76,0,0,0,0,.37.51.51,0,0,0,.52.25C110.7,129.73,112.21,129.27,111.25,128.37Z"/><path class="cls-15" d="M110.63,120a.71.71,0,0,0-.47-.45,2.09,2.09,0,0,0-.7-.11.92.92,0,0,0-.74.19.84.84,0,0,0,0,.85,1.56,1.56,0,0,0,.62.37C110,121.06,110.85,120.82,110.63,120Z"/><path class="cls-14" d="M55.2,138.45l3.31-3.06a8.44,8.44,0,0,1,.93-.77,3.5,3.5,0,0,1,2.89-.47,5.2,5.2,0,0,1,2.48,2.24c1.9,3,2.56,9.72,2.47,11.3"/><path class="cls-14" d="M70.49,148l-1-5.09c-.25-1.28-.5-2.55-.83-3.81a31.56,31.56,0,0,0-1.22-3.67c-.13-.33-.27-.67-.39-1s-.23-.69-.35-1A26.32,26.32,0,0,0,64,128.26a33.73,33.73,0,0,0-2.31-3.35,17.61,17.61,0,0,0-3.33-3.18"/><path class="cls-14" d="M72.91,148.24c-.06-2.78-.43-6.73-.78-9.49l-2-15.75-.36-2.9s-1.32-7-1.47-7.87c-.1-.56-.5-2-.68-2.56-.51-1.6-1.8-5.34-2.31-6.94"/><path class="cls-14" d="M75.1,148.3a154.54,154.54,0,0,1,1.31-19.83c.14-1,.29-2,.44-3s.3-2,.52-3c.49-2.16,1.71-6.83,5.88-6.5,2.36.19,3,2.49,3.67,3.48"/><path class="cls-14" d="M82.78,122.65c-1.16,3.51-3.47,11.88-3.75,12.73a32.26,32.26,0,0,0-1,12.69"/><path class="cls-14" d="M84,119.9c.32-.61,1.06-2,1.49-2.69"/><path class="cls-14" d="M85.5,117.21a6.48,6.48,0,0,1,1.42-2"/><path class="cls-14" d="M92.84,80.2h12.4V64.67c0,.19-12.17-.52-12.89.51s.17,5.85.22,7.26Z"/><path class="cls-14" d="M74.56,54.93h9.76V68.33c0-.16-9.58.45-10.14-.44s.13-5,.17-6.26Z"/><path class="cls-14" d="M116.84,56.34l0,36h46.32c-.42,0-.26-12.89-.38-23.62,0-3.45.86-12.57,0-12.53-3.43.19-18.37-.14-22.46,0C132.85,56.41,124.34,56.09,116.84,56.34Z"/></g></g></g></svg>