<svg xmlns="http://www.w3.org/2000/svg" viewBox="0 0 237.7 237.32"><defs><style>.cls-1{isolation:isolate;}.cls-2{opacity:0.73;}.cls-3{opacity:0.75;}.cls-4{opacity:0.04;mix-blend-mode:multiply;}.cls-5{opacity:0.8;}.cls-6{opacity:0.1;mix-blend-mode:hue;}.cls-7{opacity:0.85;}.cls-8{opacity:0.88;}.cls-9{opacity:0.95;}.cls-10{opacity:0.83;}.cls-11{opacity:0.93;}.cls-12{opacity:0.46;}.cls-13{fill:#f7bca5;}.cls-14{fill:none;stroke:#092a49;stroke-linejoin:round;}</style></defs><title>covaya_icons</title><g class="cls-1"><g id="ICONS"><g id="PINK_BKGD" data-name="PINK BKGD"><path class="cls-13" d="M81.51,161.56a1.07,1.07,0,0,0,.2.77,1.05,1.05,0,0,0,.65.21l2.36.21.31-41.2c0-.27.18-.74-.08-.8a9.88,9.88,0,0,0-2.75-.16c-1.06.11-.38,3.86-.39,4.93l-.1,12Z"/><path class="cls-13" d="M89.71,161.56a1.07,1.07,0,0,0,.2.77,1,1,0,0,0,.65.21l2.35.21.32-41.2c0-.27.18-.74-.09-.8a9.85,9.85,0,0,0-2.75-.16c-1,.11-.37,3.86-.38,4.93l-.1,12Z"/><path class="cls-13" d="M98,161.56a1.07,1.07,0,0,0,.2.77,1,1,0,0,0,.65.21l2.35.21.32-41.2c0-.27.18-.74-.08-.8a9.88,9.88,0,0,0-2.75-.16c-1.06.11-.38,3.86-.39,4.93l-.1,12Z"/><path class="cls-13" d="M154.75,161.56a1.07,1.07,0,0,0,.2.77,1,1,0,0,0,.65.21l2.35.21.32-41.2c0-.27.18-.74-.08-.8a9.92,9.92,0,0,0-2.76-.16c-1.05.11-.37,3.86-.38,4.93l-.1,12Z"/><path class="cls-13" d="M122.77,161.56a1.07,1.07,0,0,0,.2.77,1,1,0,0,0,.65.21l2.35.21.32-41.2c0-.27.18-.74-.09-.8a9.85,9.85,0,0,0-2.75-.16c-1,.11-.37,3.86-.38,4.93l-.1,12Z"/><path class="cls-13" d="M140,161.56a1.07,1.07,0,0,0,.2.77,1,1,0,0,0,.65.21l2.35.21.32-41.2c0-.27.18-.74-.09-.8a9.85,9.85,0,0,0-2.75-.16c-1.05.11-.37,3.86-.38,4.93l-.1,12Z"/><path class="cls-13" d="M109.69,121.74a1.08,1.08,0,0,0-.2-.77,1,1,0,0,0-.65-.21l-2.35-.2-.32,41.19c0,.27-.18.74.09.81a10.24,10.24,0,0,0,2.75.15c1-.11.37-3.86.38-4.93l.1-11.95Z"/><path class="cls-13" d="M118.06,121.74a1.08,1.08,0,0,0-.2-.77,1,1,0,0,0-.65-.21l-2.35-.2-.32,41.19c0,.27-.18.74.09.81a10.24,10.24,0,0,0,2.75.15c1.05-.11.37-3.86.38-4.93l.1-11.95Z"/><path class="cls-13" d="M135,121.74a1.08,1.08,0,0,0-.2-.77,1.05,1.05,0,0,0-.65-.21l-2.36-.2-.31,41.19c0,.27-.18.74.08.81a10.28,10.28,0,0,0,2.75.15c1.06-.11.38-3.86.39-4.93l.1-11.95Z"/><path class="cls-13" d="M150.88,121.74a1.08,1.08,0,0,0-.2-.77,1.05,1.05,0,0,0-.65-.21l-2.36-.2-.31,41.19c0,.27-.18.74.08.81a10.28,10.28,0,0,0,2.75.15c1.06-.11.38-3.86.39-4.93l.1-11.95Z"/></g><g id="LINES"><path class="cls-14" d="M54.37,167.42c-.32-.07-15,.31-19.16.3-.53,0-1-.59-1-1.32.28-13.33-.08-43.68-.08-46.93,0-4-.13-11.61.07-15.67,6.92.25,12.91,0,19.94,0"/><path class="cls-14" d="M54.18,100.89c-7.39-.23-14.91-.16-22.3-.37-.32,0-.59.36-.58.8,0,.62,0,1.15,0,1.7s.25.79.56.79c1.07,0,1.92,0,2.37,0"/><path class="cls-14" d="M57,106c-.24-3.83.08-9.41,0-13.24"/><path class="cls-14" d="M57.37,162.65l64.18-.22,6.08,0,24-.08,30.28-.11"/><path class="cls-14" d="M162.46,108.38c7.48,0,16.78-.29,19.49-.31"/><path class="cls-14" d="M56.93,108.07c5.87,0,14.13-.07,20.06,0"/><path class="cls-14" d="M76.21,111.75a.87.87,0,0,0,.76.94c6.21.22,27.94-.21,31-.21,18.91,0,36.3.28,54.6-.08a.88.88,0,0,0,.78-1c0-.81-.05-1.34-.07-2.17a.85.85,0,0,0-.78-.89c-25.49-.23-56.91-.08-76.46-.32-5.52-.06-8,0-9,0a.87.87,0,0,0-.77.94C76.23,110.23,76.21,110.72,76.21,111.75Z"/><path class="cls-14" d="M79.37,112.75c0,1.84-.11,4.35-.16,6.45a1.19,1.19,0,0,0,1.16,1.32c6.38-.35,20,0,20.75,0,5.87-.15,22.77,0,24.66,0,11.7.07,21.38-.14,33.05-.16a1.24,1.24,0,0,0,1.13-1.31c0-2.12,0-4.88,0-6.63"/><path class="cls-14" d="M57,115.39c3.21.06,11.33.11,11.42,0s0-2.83,0-3.51"/><path class="cls-14" d="M66.72,162.65c0-14.45,0-32.72.14-47.19"/><path class="cls-14" d="M185,167.69c.28-.07,14.33.09,18.75,0,.66,0,1.18-.75,1.17-1.65-.27-13.49.09-43.39.08-46.61,0-4,.13-11.61-.06-15.67-6.9.25-12.88,0-19.89,0"/><path class="cls-14" d="M185.1,100.56c7.38-.06,14.79.16,22.11,0,.39,0,.71.43.7,1s0,.92,0,1.36-.3,1-.68,1H205"/><path class="cls-14" d="M182.22,115.39c-3.21.06-11.33.11-11.42,0s0-2.83,0-3.51"/><path class="cls-14" d="M172.45,162.31c0-14.45,0-32.38-.14-46.85"/><path class="cls-14" d="M57.07,111.9c5.88.24,13.27-.07,19.15.17"/><path class="cls-14" d="M163.28,112c6.06.09,12.86-.08,18.92,0"/><path class="cls-14" d="M81.44,86.18c0-2.31,0-4.88,0-7.26a1.08,1.08,0,0,1,1.08-1.07l70.81,0A1.09,1.09,0,0,1,154.44,79c-.1,2.39.25,5.08.25,7.39"/><path class="cls-14" d="M86,77.85c0-1.21,0-3.27,0-4.92a1.54,1.54,0,0,1,1.55-1.54c6.55,0,19.54.1,21.33.09,13.75,0,25.77-.2,38.55,0A1.55,1.55,0,0,1,149,73c0,1.63,0,3.32,0,4.89"/><path class="cls-14" d="M90.88,71.43c0-1.7,3.78-5.56,9.85-8.07,9.09-3.75,23.33-3.27,29.13-1.49,8.71,2.67,14.81,7.09,15.58,9.56"/><path class="cls-14" d="M53.09,89.33a1.11,1.11,0,0,1,1.12-1.09l78.22.32c4,0,41.3-.3,52.44-.26a1.09,1.09,0,0,1,1.1,1l.13,2.36A1.11,1.11,0,0,1,185,92.88c-11.33-.13-22.68,0-34-.18-2.29,0-18.36-.24-24.1.07-8.36.45-50.38.47-54.16.54-6.49.13-12.11-.55-18.5-.51a1.12,1.12,0,0,1-1.13-1.13C53.1,90.92,53.07,90.08,53.09,89.33Z"/><path class="cls-14" d="M182.27,92.88c.06,2.27-.41,73.7-.23,74.81"/><path class="cls-14" d="M57,105.47c0,1.31.29,64.67.29,66,15.11,0,58.31,0,59.73.05,7.51.05,47.1,0,65,0,0-1.3,0-2.51,0-3.81"/><path class="cls-14" d="M78.5,162.6v3.47l25,0c19,0,37.93,0,56.88,0,0-.89,0-2.86,0-3.76"/><path class="cls-14" d="M160.37,166h2.5a.77.77,0,0,1,.77.76c0,.67.05,1.43,0,2"/><path class="cls-14" d="M71,171.42c0-.52,0-1.28,0-1.95a.79.79,0,0,1,.8-.79c2.74,0,5.6,0,8.14,0,16.65.13,53.25.07,55.85,0,2.18,0,24.06.06,31.1.07a.81.81,0,0,1,.8.84,12.64,12.64,0,0,0,0,1.84"/><path class="cls-14" d="M78.5,166.07c-.48,0-1.16,0-1.77,0a.78.78,0,0,0-.78.77c0,.63,0,1.29,0,1.85"/><path class="cls-14" d="M81.78,120.4c-.1,13.76,0,28.56-.15,42.2"/><path class="cls-14" d="M89.7,120.5v42"/><path class="cls-14" d="M106.23,120.59c.38,7,.09,14.72.13,21.71l0,5.28c0,4.62.05,10.19.07,14.81"/><path class="cls-14" d="M114.25,120.5c0,13.7.39,28,.36,41.84"/><path class="cls-14" d="M97.91,120.5c0,13.7.39,28,.35,41.84"/><path class="cls-14" d="M122.85,120.5v42"/><path class="cls-14" d="M139.39,120.59c.37,7,.09,14.72.12,21.71l0,5.28c0,4.62,0,10.19.07,14.81"/><path class="cls-14" d="M147.08,120.59c.38,7,.09,14.72.13,21.71l0,5.28c0,4.62.05,10.19.07,14.81"/><path class="cls-14" d="M131.06,120.5c0,13.7.39,28,.36,41.84"/><path class="cls-14" d="M154.68,120.39c-.21,4.72,0,18.9-.06,21.58-.07,1.82,0,15,.13,20.46"/></g></g></g></svg>