<svg xmlns="http://www.w3.org/2000/svg" viewBox="0 0 237.7 237.32"><defs><style>.cls-1{isolation:isolate;}.cls-2{opacity:0.73;}.cls-3{opacity:0.75;}.cls-4{opacity:0.04;mix-blend-mode:multiply;}.cls-5{opacity:0.8;}.cls-6{opacity:0.1;mix-blend-mode:hue;}.cls-7{opacity:0.85;}.cls-8{opacity:0.88;}.cls-9{opacity:0.95;}.cls-10{opacity:0.83;}.cls-11{opacity:0.93;}.cls-12{opacity:0.46;}.cls-13{fill:#f7bca5;}.cls-14{fill:none;stroke:#092a49;stroke-linejoin:round;}</style></defs><title>covaya_icons</title><g class="cls-1"><g id="ICONS"><g id="PINK_BKGD" data-name="PINK BKGD"><path class="cls-13" d="M178.5,45.27c-2.85-1.32-6.24-1-9.25-.05C158,48.71,150.86,59.84,149.06,71.05a60.77,60.77,0,0,0-7.33-11.9c-2.17-2.76-4.77-5.47-8.22-6.47-5.43-1.59-11.16,1.52-15.27,5.29-2.67,2.44-5.12,6.33-3.11,9.3L122,63.83c2.84,1.21,5.78-1.86,8.89-1.89a9.3,9.3,0,0,1,4.71,1.77Q138.31,65.35,141,67c2.48,1.51,5.32,3.74,4.75,6.51-8.65-6.9-22.39-7-31.16-.25-3-.16-6.07-.26-9.11-.28a7.94,7.94,0,0,0-3.23.45,7.56,7.56,0,0,0-2.43,2q-5.1,5.67-10.19,11.33c-.9,1-1.87,2.26-1.49,3.54a24.88,24.88,0,0,0-8.7-13.79A11.13,11.13,0,0,0,74,73.89c-2-.25-4.33.55-5.26,2.31-1.2,2.28-.22,5.81-2.59,7-.81.39-2.11,1.06-1.47,1.68A19.43,19.43,0,0,1,81.8,89.07,9.94,9.94,0,0,0,77,88a49.41,49.41,0,0,0-19.38,3.27,5.36,5.36,0,0,0-1.92,1.09c-1,1-1,2.58-1,4l.12,4.27c2-.78,4.1-1.5,6.18-2.18,0,.53.09,1.06.13,1.59A4.39,4.39,0,0,0,65,98.87c.63-.6,1.05-1.39,1.71-2a2.05,2.05,0,0,1,2.42-.43c1.37.93,0,3.16.76,4.59a42.19,42.19,0,0,1,11.63-5.94c.78-.26,2-.13,1.93.65-4.66,1.92-8.31,5.5-11.83,9a30,30,0,0,0-4.3,4.94,15,15,0,0,0,1.21,17.43c1.59,1.88,3.65,3.37,5.17,5.3a4.31,4.31,0,0,0,1.45,1.4,3.56,3.56,0,0,0,1.45.23,19.49,19.49,0,0,0,5.63-.79A38.38,38.38,0,0,1,80,110.83,47.44,47.44,0,0,1,83.78,100c1.71-3.58,2.8-7.11,7.68-5.27a10.07,10.07,0,0,1,1.6.82,15,15,0,0,1,4.7,3.81,15.12,15.12,0,0,1,1.95,4.86c0-1.4.06-2.82.13-4.23,0-.72.49-1.71,1.18-1.42a29.69,29.69,0,0,1,3.54,13.13c1.25.25,2.27.06,2.06-1.6.63,2,1.25,3.94,1.88,5.91a1.81,1.81,0,0,0,.6,1,2.33,2.33,0,0,0,1.18.26,7.63,7.63,0,0,1,6.16,4c.91-8.37-2.82-16.5-6.5-24.13a52.15,52.15,0,0,0,7.16-6.52,1,1,0,0,0,.35-.68c0-.66-1.07-.67-1.55-1.14a1.15,1.15,0,0,1,.16-1.61,3.35,3.35,0,0,1,1.69-.72,34.22,34.22,0,0,1,5.34-.69c.34-2.14-.61-4.78,1.08-6.23s4-.43,6.06-.82A3,3,0,0,1,129,76.9q7.35,1.17,14.8,1.65c-.81,1.14-2.51,1.17-3.94,1.39-3.94.62-7,3.48-9.67,6.36-3.15,3.45-6.18,7.76-5.32,12.28,1,.34,2.18-.36,3,.23a2.2,2.2,0,0,1,.6.89c.61,1.32,1.21,2.65,1.81,4,.5-1.7,1-3.41,1.49-5.11a5.25,5.25,0,0,1,1.07-2.26,2,2,0,0,1,2.35-.45,5.68,5.68,0,0,0-2.35-6.64,56.19,56.19,0,0,1,7.87-7.14,8.94,8.94,0,0,1,4.7-2.15c3.3-.17,5.76,2.9,7,5.85a30.86,30.86,0,0,1,2.12,11.41,1.68,1.68,0,0,0,1.93-1.65,1.07,1.07,0,0,0,1.31.58l-.28,8.27a14,14,0,0,0,3.3-3.73c.88,2.4-.94,4.87-2.72,6.75s-3.79,4.1-3.33,6.6c2-.48,3.33-2.15,4.54-3.72l-5.66,15.44c10.44-5.27,15.94-17.06,16.34-28.39a16.21,16.21,0,0,0-.68-6,14.8,14.8,0,0,0-4.61-6.16,27.74,27.74,0,0,0-10.2-5.49c5.8,1,11.94,2,16.33,5.82,1.81,1.55,3.43,3.6,5.81,4a3.53,3.53,0,0,1,1.57.43c1.15.86,1,3.5,2.35,3.06,1.64-6.4.78-14.21-4.84-18-3.32-2.22-7.69-2.57-11.66-1.8a46.19,46.19,0,0,0-11.24,4.3,24,24,0,0,1,10.06-8.93,2.59,2.59,0,0,0,1.31-1c.37-.74-.15-1.61-.12-2.43.07-2.11,3.31-2.76,4.07-4.74.3-.79.17-1.74.67-2.43.6-.85,1.84-.94,2.91-1l6.16-.08-.27-3.79a20.67,20.67,0,0,1,4.58-.42C183.29,50,181.34,46.59,178.5,45.27ZM106.71,91.72c-.46,0-.77-.44-1.07-.77-1.55-1.74-4.33-1.7-6.67-1.28a33.81,33.81,0,0,0-8.85,2.86c2.28-2.4,4.67-4.87,7.79-6.09a17.21,17.21,0,0,0,4.2-1.77.75.75,0,0,0,.34-.43c.13-.61-1-1.19-.58-1.62,1.17-.94,5.28-.58,5.82,1C108.41,85.66,107,89.56,106.71,91.72Z"/></g><g id="LINES"><path class="cls-14" d="M83.18,120.93l-5.34-2.14A40.61,40.61,0,0,0,81,129.54c-.94.42-.22,4.47,1,7.19.32.73.94,1.61,1.69,1.35-3-.2-6.35-.54-8.38-2.8a10.37,10.37,0,0,1-2-4.21A39.38,39.38,0,0,1,72,124.35l-3,5.73c-3.63-8.64-1.84-19.16,3.94-26.42,1.8-2.27,15.36-10.1,13.43-7.94C83.9,98.53,78,112.65,83.18,120.93Z"/><path class="cls-14" d="M109.72,94.84a14.42,14.42,0,0,0-11.63-3.56,27.45,27.45,0,0,0-11.68,4.44c.86.61,4.52,1.19,5.69,1.52A8.62,8.62,0,0,1,96,99.61a14.53,14.53,0,0,1,3.43,8.19c.44,0,.52-.62.51-1.06,0-2,1-3.81,1.91-5.54l3,10.78a6.71,6.71,0,0,1,2.57-4.1A84.87,84.87,0,0,0,110,119.66c.27-1.42,4,3.25,6.32,6.14,0-2,.85-4,1.28-6,.88-4.18-.37-8.49-1.61-12.59a40.7,40.7,0,0,0-3.45-8.78"/><path class="cls-14" d="M117.77,72.66a29.51,29.51,0,0,0-7.15.26A19.77,19.77,0,0,0,104,75a24.08,24.08,0,0,0-5.51,4.57c-3.94,4.13-9.94,10.2-12.06,16.16,1.39-.09,7.43-6.85,9-5.93-.29-.18,6.49-3.67,10.67-5C105,84.47,107.5,83,110.33,83"/><path class="cls-14" d="M81.11,89.17a14.79,14.79,0,0,0-5.16-4,11.48,11.48,0,0,0-6.84,0c-2.24.58-4.4,1.47-6.68,1.89-.15-.76.54-1.4,1.18-1.82A14.41,14.41,0,0,1,72.12,83l-5.31-1.73a.84.84,0,0,1-.39-.22c-.21-.24-.08-.62.08-.91a12.52,12.52,0,0,1,5-5,19.08,19.08,0,0,1,7,4.91L78.89,78a3.21,3.21,0,0,1,.91,1l1.47,2.13c1.38,2,3.52,4.14,3.91,6.52s.81,5.86,1.23,8.11C84.86,94.6,82.51,90.63,81.11,89.17Z"/><path class="cls-14" d="M69.08,103.48c.71-2.5-.81-5.79-2.33-4s-2.76,3.81-4.7,5c-.4-1.92.85-3.58,1.38-5.47a7.15,7.15,0,0,0-5.49,1.91c-1.53,1.29-3.91,2.57-5.25,4.06-.17-3.78,2-8.06,0-8.08-.24-.41.23-.87.64-1.11.82-.48,1.64-1,2.48-1.39,8.24-4.28,23-4.87,30.58,1.33-2.14-.37-8.27,2-9.8,2.66A24.28,24.28,0,0,0,69.08,103.48Z"/><path class="cls-14" d="M85.26,96.8c6.69,11.81,12.63,23.78,15,36.68.84,4.5,1.41,9.1,3.48,13.31,1,2,1.22,5.57,1.91,7.69a21.52,21.52,0,0,1,.76,5.92q.4,11.46.79,22.9"/><path class="cls-14" d="M91.37,98.88c2.38,2.92,2.88,4.59,4.15,8,.7,1.86,1,3.81,1.66,5.7,1.21,3.71,3.48,7.11,5.21,10.67a79.1,79.1,0,0,1,5,14.71c2.06,7.8,4,12.71,5.85,20.55a42.38,42.38,0,0,1-.08,9.36c-.88,4.43.48,9.81.78,14.27"/><path class="cls-14" d="M137.92,78.19c-3.24-.65-6.94-.6-9.5,1.59a3.22,3.22,0,0,1,2.77,2,9.5,9.5,0,0,0-5.52,1.32c-1.59,1.13-2.47,3.5-1.41,5.11a10.87,10.87,0,0,0-6.68,1.17c-.4.21-.84.51-.9,1-.17,1.07,1.72,1.54,1.55,2.61a1.53,1.53,0,0,1-.62.87l-7.91,7a77.28,77.28,0,0,1,.9-17.71,15.2,15.2,0,0,1,2.34-6.64c1.42-1.92,3.58-3.12,5.66-4.25,3.83-2.08,7.7-4.19,11.9-5.24s8.82-1,12.53,1.19c2.52,1.46,6.26,7,7.9,10.17C151.86,80.11,140.74,78.75,137.92,78.19Z"/><path class="cls-14" d="M140.06,81.79A24.63,24.63,0,0,0,126.81,103l3.18-5c-.24,3,2.31,5.68,2.28,8.74l2.08-6.63a1.6,1.6,0,0,1,.45-.84.57.57,0,0,1,.84.06,6,6,0,0,0-.64-7.62c.29.27,14.74-11,15.52-11.63C153.09,77.82,142.52,80.56,140.06,81.79Z"/><path class="cls-14" d="M151.18,79c1,2.26,8.12,13.3,6.65,19.08,1.78-2.19,4.87-1.51,4.25,1.52a40.35,40.35,0,0,1-3.13,8.74,13,13,0,0,0,5.44-8.13,12.89,12.89,0,0,1-1.62,8,32.17,32.17,0,0,1-5.08,6.6,6.12,6.12,0,0,0-2,3.3c2.2-.32,2,5.46-1,9-.31.35-.3,1.19.11,1,2.76-1.45,11.1-7.24,13.56-14.09,1-2.92,3.31-16.88,1.2-22.09-.4-1-1-1.9-1.45-2.85C165.12,83.19,156.94,80.23,151.18,79Z"/><path class="cls-14" d="M164.63,80.8c2.29.41,4.68.86,6.47,2.35a13.28,13.28,0,0,1,2.28,2.72l2.52,3.59c.19-1.83,1.46-2.76,2.15-1A22.38,22.38,0,0,1,179.17,94a21.1,21.1,0,0,0,1.23-5.19A12.85,12.85,0,0,1,184,96.6a19.06,19.06,0,0,0-.2-15.48c-.8-1.68-3.83-5.44-9.56-7.58a21,21,0,0,0-16.9,1.16c-3.44,1.7-6.85,4.22-6.2,4.34,1.57.27,7.2.67,8.44.88Z"/><path class="cls-14" d="M158.09,57.58a37.55,37.55,0,0,1,3-4.73,24,24,0,0,1,14-8.78c3-.61,6.4-.51,8.65,1.54,2,1.81,2.63,4.68,3.16,7.37-2.2-.38-4.15,2.21-4.66,4.17a20.37,20.37,0,0,0-5.39-.73c-1.12,0-2.44.19-3,1.2A3.09,3.09,0,0,1,176.85,59c-.17-.26-.57-.17-.86,0-3.45,1.5-7.62,6.52-7,7.49-2,.43-8.56,1.71-12.6,7.78-1.33,2-3.79,2.85-5.24,4.77s1.72-9.56,1.95-10.24A71,71,0,0,1,158.09,57.58Z"/><path class="cls-14" d="M144.3,66.85a23.27,23.27,0,0,0-4.51-4.08c-1.93-1.25-4.34-2-6.55-1.34-2,.63-3.51,2.36-4.88,4L128,61.55a13.33,13.33,0,0,0-6.68,6.93c.33-2.87-3-3.24-4.82-.24a13.14,13.14,0,0,1,2.43-10,12.79,12.79,0,0,1,8.87-5,16.42,16.42,0,0,1,4.14.2,24.62,24.62,0,0,1,12.33,5.85c1.21,1.07,4.33,4.73,5.14,7.54,1.25,4.36,1.84,9.13,1,10.54C148.81,75.58,145.9,68.63,144.3,66.85Z"/><path class="cls-14" d="M149.67,82.31a388.22,388.22,0,0,0-16.26,42.56c-5.93,18.55-10.32,37.82-7.84,56.81"/><path class="cls-14" d="M153.85,83.11c-3.12,9-6.07,17.36-9.19,26.42-.47,1.37-.94,2.73-1.4,4.1a250.3,250.3,0,0,0-12.82,69.51"/></g></g></g></svg>