<svg xmlns="http://www.w3.org/2000/svg" viewBox="0 0 237.7 237.32"><defs><style>.cls-1{isolation:isolate;}.cls-2{opacity:0.73;}.cls-3{opacity:0.75;}.cls-4{opacity:0.04;mix-blend-mode:multiply;}.cls-5{opacity:0.8;}.cls-6{opacity:0.1;mix-blend-mode:hue;}.cls-7{opacity:0.85;}.cls-8{opacity:0.88;}.cls-9{opacity:0.95;}.cls-10{opacity:0.83;}.cls-11{opacity:0.93;}.cls-12{opacity:0.46;}.cls-13{fill:#f7bca5;}.cls-14{fill:none;stroke:#092a49;stroke-linejoin:round;}</style></defs><title>covaya_icons</title><g class="cls-1"><g id="ICONS"><g id="PINK_BKGD" data-name="PINK BKGD"><path class="cls-13" d="M147.37,157.41c2.33-7.31,7.41-19.74,7.43-27.45,0-10.53-7.07-19.72-13-23.18-2.82-1.49-7.78-3.06-11-3-3.06-3.1-6.9-7.34-11-9.49-5-2.61-10.63-5.33-16.54-4.55-5.29.7-9.67,3.88-11.05,8.83a2.61,2.61,0,0,0,.16,2c-7.43,1.86-13.68,6.48-14.32,14.65a2.56,2.56,0,0,0,0,.62c.45.9-3.18.26-3.56.22-5.39-.62-7,1.57-7.31,6.94a15.3,15.3,0,0,0,1.2,7.91c1.13,2.21,4.25,12.94,6.36,11.45,2.89-2,2.62-2.57,1.37-5.53s-9.71-11.62-2.42-16c1.13-.68,4,.78,4.81-1,.4.18,1-1.78,1.46-1.8,1.21,0,3.77.35,4.95.34a9.27,9.27,0,0,0-2.39,1.16A7.2,7.2,0,0,0,80.18,124a10.74,10.74,0,0,0,.64,5.5c2,4.34,2.51,6.7,6.5.88,0,0-2.1-2.81-2.41-4.31-.24-1.18-.71-2.23.29-3.18,2-1.87,6.34-1.42,8.88-1.86,1.2-.2,1.47.46,2.64-.29,2.39,0,2.39-.46,7.77,3.23,4.78,3.28,7.79,8.74,12.75,11.87a26.31,26.31,0,0,1,1,5.23c.29,4.81-1.33,11.9-8,9.09-1.35-.56-1.75-1-2.89-.06-2,1.63-1,2-2.93,3.39s2,3.12,1.07,5.08c-1.33,2.84-5.69,1.32-7.41,1.61-3.88.63-2.65,2.62,1.15,3.53,3.15.75,9.09,1.39,11.69-1.49.88-1,.49-1.69.51-3a12.16,12.16,0,0,0-.69-2.34c3.39.45,7.8-.64,10.17-3.32,3.52-4,4.28-9.63,3.35-14.69,3.45.07,5-3,7.72-5.23,3.81-3.13,8.06-7.12,8.36-11.82.28-4.25-4.95-10-7.26-13.8a24.3,24.3,0,0,1,7.09,3.5c10.24,7.08,9.29,21.93,6,33.26s-10.86,23.48-1.64,33.63c2.58,2.85,8.4,2.41,5.84-.41C144.46,171.63,145.12,164.49,147.37,157.41ZM116,115.68a41.83,41.83,0,0,0-6.71-9.88c7.71,1.06,16.12,3.75,22.42,9.37a3.12,3.12,0,0,0,.81.51c.13.26.24.51.34.76-3.4,0-6.8,0-10.2-.06C121,116.34,117.35,115.85,116,115.68Zm6.65-11.45c-.76-.26-2-2.33-2.82-2.54a58.72,58.72,0,0,0-16.15-2.06c-.8,0-5.51-.07-7.42.67C99.29,91.51,115.71,99.49,122.63,104.23Zm-20.3.56c2.85,2.57,5.58,8.7,7.57,11.59-6-2.5-11.37-5.22-19.34-4.35a23.32,23.32,0,0,0-7.94,2.27C85.57,104.17,95.69,104.68,102.33,104.79Zm1.75,13.57a28.11,28.11,0,0,0,3.14,1.19c.47.14,4.69.57,5.18.69.45,1.31.79,4.05,1.09,5.46C111.62,123.78,106.08,120.15,104.08,118.36Zm16.1,15.21c-.54-2-1.33-10-3.34-12.47,4.45.2,13.61.14,17.8,0,1.71,5.05-3.39,8.62-5.95,11C126.36,134.34,126.23,138.53,120.18,133.57Z"/><path class="cls-13" d="M84.81,146.94Z"/><path class="cls-13" d="M81.64,151.75l.06-.4a10.38,10.38,0,0,0,3-2.77.4.4,0,0,1-.54,0,1.27,1.27,0,0,1-.34-.5,28.32,28.32,0,0,0-2.2-3.77q-.81.91-1.68,1.77c-.53.53-1,.72-.82,1.46a10,10,0,0,0,1.29,2.1C80.59,150,81.7,151.35,81.64,151.75Z"/><path class="cls-13" d="M90.27,159.32a.36.36,0,0,0,.28.12.29.29,0,0,0,.18-.13A23.05,23.05,0,0,1,93,157.09a12.41,12.41,0,0,1-4.13-3.19l-1.19-1.22a12.67,12.67,0,0,1-1.56,1.8c-.79.76-.53.79.28,1.49Z"/><path class="cls-13" d="M91.45,141.79c.88-1,1.79-1.91,2.74-2.83a1.61,1.61,0,0,1-.65-.33,10.32,10.32,0,0,1-3.14-3s-.06-.11-.12-.13-.15,0-.21.1c0,.32-1.42,1.33-1.68,1.59-.64.62-.83.75-.29,1.46A22.14,22.14,0,0,0,91.45,141.79Z"/><path class="cls-13" d="M100.66,149.35l2.59-2.15-5-4.34a.27.27,0,0,0-.44,0c-.64.53-1.27,1.08-1.86,1.67-.88.87-.25,1,.61,1.65C96.92,146.42,100.64,149.37,100.66,149.35Z"/></g><g id="LINES"><path class="cls-14" d="M90.19,135.33a15.31,15.31,0,0,0,3.7,4.29"/><path class="cls-14" d="M119.55,130.32a14.92,14.92,0,0,0,3.47-5,3.49,3.49,0,0,0,.23-2.52c-.42-.78-2.42-1.71-5.41.71"/><path class="cls-14" d="M110.65,130.68c-7.61,8.21-17.94,15.88-25.09,24.23-1.54,1.78-3.4,3.85-5.58,4.32a1.23,1.23,0,0,1-1.43-1.6c1.3-3.86,4.93-7.44,7.89-10.23,3.78-3.57,15-16.93,19.13-20.74"/><path class="cls-14" d="M116.79,141.54a186.35,186.35,0,0,0-15.4,14.89,39,39,0,0,1-5.52,5c-2.13,1.69-6.15,5-7.6,3.65-.79-2.34,1.15-4.65,2.94-6.41,7-6.91,16.38-15.77,23.39-22.68"/><path class="cls-14" d="M101.66,123.45c-6.45,6.56-22.52,23.41-26.31,26.49-.69.56-3.08,3.13-4.38,1.85-1-.94-.52-2.49.16-3.64a34.43,34.43,0,0,1,5.74-7.29c2-2,17.23-18.25,19.85-20.09"/><path class="cls-14" d="M79.55,128.16c-1.22,1-3.6,3.62-5,4.9"/><path class="cls-14" d="M80,118c-3.2,3.8-6,7.27-7.62,9.66"/><path class="cls-14" d="M91.39,105.16c-2.86,3-5.91,6.45-8.77,9.76"/><path class="cls-14" d="M96.24,112.67c1.7-1.86,5.76-5.65,7.73-3.5a1.86,1.86,0,0,1,.26,2.53,9,9,0,0,1-2.08,2.33"/><path class="cls-14" d="M69.15,131.27c-2.62,2.13-5.53,5.79-6.39,8.88-.24.83.54,1.33,1.44,1.31a7.15,7.15,0,0,0,3.49-1.57,38.08,38.08,0,0,0,3.83-3.34"/><path class="cls-14" d="M104.22,92.2c8.08-6.48,14.65-10.75,23.74-11.69a21.51,21.51,0,0,0,4.82-.73,12.46,12.46,0,0,0,3-1.66c8-5.63,13.33-14.05,18.43-22.24,4.53-7.26,6.74-13.43,11.5-19"/><path class="cls-14" d="M143.42,111.3a35,35,0,0,0,4.4-15c.17-2.22.12-4.47.48-6.67,1.45-8.72,14.81-21.7,20.57-27.81"/><path class="cls-14" d="M138.63,120.07a29.2,29.2,0,0,0,2.46-4.37"/><path class="cls-14" d="M108.31,123.61c.92-1.12,1.86-2.21,2.82-3.3"/><path class="cls-14" d="M104.18,120.61l1.14-1.26"/><path class="cls-14" d="M135.94,112.11c11.23,5,11.31,16.13,10.33,23.57-1.18,8.93-4.5,16.74-7.64,24.84-2,5.07-2.31,11.3,1,15.66a14,14,0,0,0,4.73,3.58,5.53,5.53,0,0,0,2.15.6c5.48.41-1.6-4.64-2.5-5.82-2-2.57-3-8.65-.66-13.48,4.47-9.43,7.86-21.25,7.4-31.61-.26-6-.79-20.42-18.95-23.68"/><path class="cls-14" d="M126.69,133.88c-2.07,1.34-3.08,1.29-5.93,0a10.57,10.57,0,0,1-2.69-2,115,115,0,0,0-17-13,39.54,39.54,0,0,0-12.69-4.52c-2.82-.36-8,.6-9.08,3.55,7.81.56,17.48,1.55,23.79,6.59,2.23,1.79,14,11.72,14.9,12.54a9,9,0,0,0,6.19,1.86c3.14-.06,6.12-2.41,6-4.77"/><path class="cls-14" d="M79.62,118.21a19.45,19.45,0,0,0-8.33-.79A5,5,0,0,0,67.64,121c-.88,2.83,0,5.87.92,8.69A81.87,81.87,0,0,0,75,142.88"/><path class="cls-14" d="M78.28,139.43c-1.22-1.42-2.53-4.41-3-5.16-2.36-3.66-5.25-12-1.88-12.91a7.4,7.4,0,0,1,3.69.16"/><path class="cls-14" d="M82.49,135a16.54,16.54,0,0,1-2.64-5c-1.06-3.64-1.7-5.7.21-8.54,1.68-2.52,4.43-2.53,7.44-2.74"/><path class="cls-14" d="M86.56,130.53c-1.46-2-2.73-5.25-1.64-6.62,2-2.44,6.91-2.45,10.19-1.78"/><path class="cls-14" d="M100.16,104.79c5.81,4,8,8.74,9.74,11.59"/><path class="cls-14" d="M115.62,117.35c-2.34-3.76-4.87-8.21-8.44-11.58"/><path class="cls-14" d="M81.66,115.53c3.9-2.73,11.75-3.33,15.58-2.75,3.29.5,6.37,1.83,9.55,2.78,7.49,2.25,18.45,3.31,26.21,2.21"/><path class="cls-14" d="M99.11,117.82c9.15,2.39,25.5,5.56,35,4"/><path class="cls-14" d="M92,101.17c.23-7.76,7.29-8.91,10.23-9.11a32,32,0,0,1,7.72.8c13.54,2.38,26.49,14.14,28.68,27.21a12.63,12.63,0,0,1-2.79,10.25c-4.34,5.19-7.58,3.66-9.15,3.56"/><path class="cls-14" d="M77.42,117.56c0-2.32.23-5.52,1.41-7.54,1.92-3.29,6.37-3.77,10.23-4.49,20.85-3.88,39.7,7.63,43.41,12.31"/><path class="cls-14" d="M86.66,139.16a31.05,31.05,0,0,0,4,4"/><path class="cls-14" d="M93.91,146.12a41.83,41.83,0,0,0,5.49,4.48"/><path class="cls-14" d="M97.8,143.16a46.44,46.44,0,0,0,4.79,4.28"/><path class="cls-14" d="M107,150.57c1.66,1.31,7.36,3.36,8.87.81a12.5,12.5,0,0,0,1.45-7.24c-.24-3.1-2.82-7.2-3.28-10.43"/><path class="cls-14" d="M121.12,138.53c1,4.31,1.67,10.71-1.57,15.56-2.24,3.35-4.83,3.4-8,3.16-1.64-.12-6.09-2.16-7.93-3.27"/><path class="cls-14" d="M97.17,161.43c1.86.84,5.9,1.52,6.94.49,1.51-1.48.11-4.31-1.57-5.6"/><path class="cls-14" d="M93.71,164.16a32.16,32.16,0,0,0,7.21,2.27,11.75,11.75,0,0,0,7.18-.71,5,5,0,0,0,1.06-.77c1.59-1.41,2.16-4.82,1-6.94"/><path class="cls-14" d="M81.2,144.53c1,1.78,2,3.52,3.19,5.2"/><path class="cls-14" d="M77.93,147.41a22.15,22.15,0,0,0,3.23,5.43"/><path class="cls-14" d="M84.47,157.14a27.82,27.82,0,0,0,5.09,4.4"/><path class="cls-14" d="M87.46,152.78a23,23,0,0,0,5.33,4.51"/><path class="cls-14" d="M125.1,134.74c2-1.43,9-9.32,9-9.32,2.36-4.16-4.11-15-9.68-19.74A44.9,44.9,0,0,0,112,98.52c-3.53-1.44-11.54-5.16-17,2.33"/><path class="cls-14" d="M127,108.21c-3.89-4.11-14.7-8.11-27.25-7.9a32.71,32.71,0,0,0-16,4,11.63,11.63,0,0,0-4.91,5.7"/><path class="cls-14" d="M111.49,120.24c2,3.75,2.9,6.78,2.91,8.38"/><path class="cls-14" d="M116.84,121.1c1.18,2.15,3.19,11.06,3.34,12.47"/></g></g></g></svg>